<?xml version="1.0" encoding="utf-8"?>
<!-- Generator: Adobe Illustrator 19.2.1, SVG Export Plug-In . SVG Version: 6.00 Build 0)  -->
<svg version="1.1" id="Layer_1" xmlns="http://www.w3.org/2000/svg" xmlns:xlink="http://www.w3.org/1999/xlink" x="0px" y="0px"
	 viewBox="0 0 1190.6 456" style="enable-background:new 0 0 1190.6 456;" xml:space="preserve">
<style type="text/css">
	.st0{fill-rule:evenodd;clip-rule:evenodd;}
	.st1{fill:#231F20;}
	.st2{fill:#D92627;}
</style>
<g>
	<g>
		<g>
			<path d="M280.9,318.8h4.5l35,93.7h-8.2l-9.4-25.8h-39.4l-9.4,25.8h-8.2L280.9,318.8z M300.4,380.2l-11.1-30.6l-6-16.9h-0.3
				c-1.1,3.5-2.8,8.1-6,16.9L266,380.2H300.4z"/>
			<path d="M705.5,407.9c-8.1,4.3-16.5,6.1-24.5,6.1c-26.8,0-43.4-19.6-43.4-46.9c0-27.2,18.4-48.6,45.1-48.6
				c9.8,0,18.3,2.6,22.4,5.1v7.4c-6.1-3.3-12.8-5.7-22.4-5.7c-22.3,0-37.2,17.4-37.2,41c0,24.1,13.8,41,36,41
				c8.2,0,15.6-2.3,21.8-5.5L705.5,407.9z"/>
			<path d="M717.5,379c0-19.6,11.5-35.2,29.9-35.2c18.2,0,29.8,15.6,29.8,35.2c0,19.4-11.5,35-29.9,35
				C729.1,414,717.5,398.4,717.5,379z M769.2,379c0-16.7-8.8-28.4-21.8-28.4c-13.2,0-22,11.6-22,28.4c0,16.6,8.8,28.2,21.8,28.2
				C760.4,407.2,769.2,395.6,769.2,379z"/>
			<path d="M794.8,345.5h6.2l1.1,9.1c7.4-6.4,15-10.8,23.7-10.8c7.5,0,14,3.8,17,12.1c7.9-7.2,16.5-12.1,25.2-12.1
				c10.5,0,18.9,7.2,18.9,23.3v45.5h-7.5v-42.8c0-10.8-2.6-19-12.5-19c-8.1,0-15.6,5.2-22.6,11.5c0.1,1.6,0.3,3.3,0.3,4.8v45.5h-7.5
				v-42.8c0-10.8-2.6-19-12.5-19c-8.2,0-15.5,5.2-22.4,11.5v50.3h-7.5V345.5z"/>
			<path d="M908.2,347.8c6.9-2.7,14.2-4,20.6-4c20.1,0,32.9,12.3,32.9,34.7c0,22.4-14.7,35.5-33.3,35.5c-4.7,0-9.2-1.1-12.6-2.7
				v34.9h-7.5V347.8z M928.4,407.2c16.3,0,25.4-11.5,25.4-28.9c0-19.3-11.2-27.8-25.1-27.8c-4.7,0-8.7,0.7-12.9,2.1v51.3
				C920,406.2,923.5,407.2,928.4,407.2z"/>
			<path d="M1016.4,404.5c-5.4,5.4-12.2,9.5-20.6,9.5c-11.9,0-20.8-7.5-20.8-20.4c0-8.9,4.7-15,11.3-18.2c4.5-2.1,9.6-2.7,16.5-3
				l13.5-0.4v-5.1c0-11.3-6.5-16.3-15.2-16.3c-8.8,0-14.2,3-18.9,5.8l-3.3-5.8c7.8-5.1,15.9-6.8,22.4-6.8c12.2,0,22.4,6.1,22.4,22.1
				v21.3c0,15.6,0.6,22.1,1.4,25.4h-7.1L1016.4,404.5z M1003.2,379c-6.4,0.1-10.5,1.1-13.8,2.8c-4.4,2.3-6.5,6.7-6.5,11.5
				c0,8.1,5.1,13.9,13.5,13.9c9.4,0,16.2-6.5,19.9-10.5v-18.2L1003.2,379z"/>
			<path d="M1044.5,345.5h6.2l1.1,9.1c7.4-6.4,15-10.8,23.7-10.8c10.5,0,19.3,7.2,19.3,23.3v45.5h-7.5v-42.8c0-10.8-3-19-12.9-19
				c-8.2,0-15.5,5.2-22.4,11.5v50.3h-7.5V345.5z"/>
			<path d="M1104.6,437.7c2.4,1,5.4,1.7,8.9,1.7c9.4,0,17-6.9,22.4-26l-29.2-67.9h8.4l24.1,57.3h0.3l18.7-57.3h8.1l-24.8,73.6
				c-7.8,23.3-17.7,27.1-28.1,27.1c-4.7,0-7.7-0.7-10.5-1.8L1104.6,437.7z"/>
		</g>
		<g>
			<path class="st0" d="M552.2,403.8c-0.4,1.8-1.2,2.8-2,2.6c-1.3-0.2-2.8-3-2.3-6.8c0.4-3.1,2-6.5,4.6-9.8
				C553.3,395,553.2,399.8,552.2,403.8z M553.8,384.8c-1.9-8.1-5.7-16.8-10.9-24.9c-6.9-10.6-22.2-29-48-33.5l-0.4,2.2
				c25,4.3,39.9,22.2,46.6,32.4c5.4,8.3,9.2,17.5,10.9,25.8c-3.5,4.1-5.7,8.4-6.3,12.5c-0.6,4.9,1.6,8.7,4.2,9.2c0.1,0,0.3,0,0.5,0
				c1.1,0,3-0.5,4-4.3c1.2-4.8,1.1-10.6,0-16.8c5-5.6,12.5-10.9,21-14.6l-0.9-2.1C566.2,374.4,559,379.4,553.8,384.8z M595.2,359.3
				c-1.7-1.7-3.7-2.5-6.1-2.5c-2.4,0-4.4,0.8-6,2.5c-1.7,1.7-2.5,3.7-2.5,6c0,2.4,0.8,4.4,2.5,6c1.7,1.7,3.7,2.5,6,2.5
				c2.4,0,4.4-0.8,6.1-2.5c1.7-1.6,2.5-3.7,2.5-6C597.7,363,596.9,361,595.2,359.3z"/>
			<g>
				<path class="st0" d="M408.1,340.1c5.1,0,9,1.6,11.6,4.6c2.6,3.1,4,8.4,4,15.9c0,3.2-0.2,6.1-0.7,8.6c-0.4,2.4-1.3,4.5-2.5,6.3
					c-1.2,1.7-2.7,3-4.7,3.9c-2,0.9-4.6,1.4-7.8,1.4c-5.3,0-8.9-1.6-11-4.8c-2.2-3.2-3.4-8.4-3.4-15.3c0-2.4,0.1-5,0.5-7.5
					c0.3-2.4,1-4.6,1.9-6.6c0.9-1.9,2.3-3.4,4.2-4.6C402.1,340.7,404.7,340.1,408.1,340.1z M429.1,422c0,18.1-17.3,18.8-20.9,18.8
					c-6,0-22.7-0.2-22.7-18.8c0-19.3,20.2-19,31.7-18.1C422.2,407.4,429.1,413.4,429.1,422z M495.8,303.1c0.8,1.8,1.2,3.5,1.2,5.1
					c0,2.3-0.6,4.3-1.9,6c-1.4,1.9-4.4,3.3-7.4,3.3c-1.6,0-3.2-0.4-4.5-1.1c-2-1.1-3-2.8-3-5.2c0-2,0.6-3.8,1.7-5.4
					c0.9-1.3,1.4-2.7,1.4-4.4c0-2-0.8-3.2-2.4-3.9c-0.6-0.2-1.5-0.4-2.5-0.4c-3.5,0-8.2,1.6-11,5c-3.1,3.7-4.6,9.6-4.6,17.4v19.3
					h31.4v70.5h-15.1v-65.3h-16.3v65.3h-15.1v-65.3h-16.6c6.4,6.4,6.9,14.8,6.9,17.1c0,9.3-7.7,20.3-21,23
					c0,7.9,13.5,14.7,19.4,20.1c14.1,12.8,6.7,31.4-8.4,37.2c-29.5,11.2-56.6-3.7-56.6-18.4c0-16.1,19.5-24.3,36.2-24.3
					c2.6,0,4.9,0,7,0.2c-1.7-1.9-4.8-7.3-4.8-13.7c-0.3,0-0.7,0-1,0c-20.1,0-30-13.2-30-23.6c0-11.4,9.6-25.9,29.1-25.9
					c6.2,0,11.3,1.6,15.2,3.1h24.5v-5.5c0-3.8,0.2-7.1,0.6-9.8c0.4-2.8,0.9-5.2,1.6-7.3c0.7-2.1,1.4-4,2.3-5.6c0.8-1.6,1.9-3,3-4.4
					c3.2-4,6.7-7.2,10.7-9.4c4.1-2.4,8.7-3.7,13.5-3.7c2.4,0,4.7,0.3,6.3,1c2.5,0.9,4.6,2.2,6.5,3.9
					C493.8,299.5,495.1,301.2,495.8,303.1z"/>
			</g>
		</g>
	</g>
	<path d="M214.9,369.6c0-0.8-0.2-1.4-0.7-1.4h-188c-0.5,0-0.6,0.6-0.6,1.4l0,0c0,0.8,0.1,1.4,0.6,1.4h188
		C214.7,371,214.9,370.4,214.9,369.6L214.9,369.6z"/>
	<g id="IMPAQ_5_">
		<polygon points="144.2,22.9 107.6,253.5 27.2,253.5 63.7,22.9 		"/>
		<polygon points="130,253.5 202.8,22.9 290.4,22.9 304.9,143.2 356.9,22.9 444.1,22.9 444,253.5 363.6,253.5 370.8,128.7 
			312.2,253.3 261.9,253.5 245.6,128.1 214,253.5 		"/>
		<g>
			<path d="M463.7,253.4l36.5-230.6h113.1c69.4,0,79.6,49.8,72.7,83c-11.7,55.9-38.5,77.6-96.2,77.6h-34l-10.9,70H463.7z
				 M571.8,82.2l-7,44.3h7.8c15.5,0,23.7-0.9,29.4-6.4c3.4-3.3,6.3-8.2,7.3-15.3c1.1-7.7,0.4-12.6-2.1-15.8
				c-2.5-3.2-5.8-6.8-27.5-6.8H571.8z"/>
		</g>
		<path d="M807.1,223.9h-64.1l-11.3,29.6h-90.7L759.3,22.9h91.8l46.6,230.6h-89.5L807.1,223.9z M800.5,168.8l-7.7-71.2l-26.7,71.3
			L800.5,168.8z"/>
		<g>
			<path d="M1160,215l7,82.4l-91.9-64c-24.3,19.6-93.5,35.4-138.8,3c-53.9-38.6-44.4-122.2-18.3-159c42.7-60.2,123.8-82,180.2-46.8
				c53.5,33.3,58.2,112.7,12.5,170.8L1160,215z M1058.1,144.8c10.4-31.8-4.1-56.3-20.9-57.2c-17.8-1-47.2,7.2-56.3,43.6
				c-4.8,19,3.7,48.2,28.2,49C1029.2,180.9,1048.4,174.5,1058.1,144.8"/>
		</g>
		<polygon class="st1" points="999.4,141.2 1145.3,167.5 1153.3,259.6 		"/>
		<polygon class="st2" points="999.4,141.2 1145.3,167.5 1153.3,259.6 		"/>
	</g>
</g>
</svg>
