<?xml version="1.0" encoding="utf-8"?>
<!-- Generator: Adobe Illustrator 19.2.1, SVG Export Plug-In . SVG Version: 6.00 Build 0)  -->
<svg version="1.1" xmlns="http://www.w3.org/2000/svg" xmlns:xlink="http://www.w3.org/1999/xlink" x="0px" y="0px"
	 viewBox="0 0 512 211" style="enable-background:new 0 0 512 211;" xml:space="preserve">
<style type="text/css">
	.st0{display:none;}
	.st1{display:inline;}
	.st2{opacity:0.25;clip-path:url(#SVGID_2_);}
	.st3{fill:#435058;}
	.st4{fill:none;stroke:#E42322;stroke-width:0.4782;stroke-miterlimit:10;}
	.st5{fill:none;stroke:#E42322;stroke-width:0.4782;stroke-miterlimit:10;stroke-dasharray:1.9145,1.9145;}
	.st6{fill:none;stroke:#E42322;stroke-width:0.4751;stroke-miterlimit:10;}
	.st7{fill:none;stroke:#E42322;stroke-width:0.4751;stroke-miterlimit:10;stroke-dasharray:1.9071,1.9071;}
	.st8{display:inline;fill:#E42322;}
	.st9{font-family:'Calibri-Light';}
	.st10{font-size:12px;}
	.st11{display:inline;fill:none;stroke:#E42322;stroke-width:0.4751;stroke-miterlimit:10;stroke-dasharray:1.9003,1.9003;}
	.st12{fill:#333E48;}
	.st13{fill-rule:evenodd;clip-rule:evenodd;fill:#FFA400;}
	.st14{fill-rule:evenodd;clip-rule:evenodd;fill:#333E48;}
	.st15{display:inline;fill:#FFA400;}
	.st16{fill-rule:evenodd;clip-rule:evenodd;fill:#F29400;}
	.st17{fill-rule:evenodd;clip-rule:evenodd;fill:#435058;}
	.st18{display:inline;fill:#F29400;}
	.st19{fill:#F29400;}
	.st20{fill:#D50A1B;}
	.st21{fill:#FFFFFF;}
	.st22{fill-rule:evenodd;clip-rule:evenodd;fill:#FFFFFF;}
</style>
<g id="zone_insert" class="st0">
	<g class="st1">
		<defs>
			<rect id="SVGID_1_" x="8.8" y="-113.7" width="486.2" height="255.2"/>
		</defs>
		<clipPath id="SVGID_2_">
			<use xlink:href="#SVGID_1_"  style="overflow:visible;"/>
		</clipPath>
		<g class="st2">
			<line class="st3" x1="195.6" y1="-415.3" x2="-152.8" y2="64.2"/>
			<line class="st3" x1="199.3" y1="-412.5" x2="-149" y2="67"/>
			<line class="st3" x1="203.1" y1="-409.7" x2="-145.3" y2="69.8"/>
			<line class="st3" x1="206.8" y1="-406.9" x2="-141.6" y2="72.6"/>
			<line class="st3" x1="210.5" y1="-404.1" x2="-137.9" y2="75.4"/>
			<line class="st3" x1="214.2" y1="-401.3" x2="-134.1" y2="78.2"/>
			<line class="st3" x1="218" y1="-398.5" x2="-130.4" y2="81"/>
			<line class="st3" x1="221.7" y1="-395.7" x2="-126.7" y2="83.8"/>
			<line class="st3" x1="225.4" y1="-392.9" x2="-123" y2="86.6"/>
			<line class="st3" x1="229.1" y1="-390.1" x2="-119.3" y2="89.4"/>
			<line class="st3" x1="232.8" y1="-387.3" x2="-115.5" y2="92.2"/>
			<line class="st3" x1="236.6" y1="-384.5" x2="-111.8" y2="95"/>
			<line class="st3" x1="240.3" y1="-381.7" x2="-108.1" y2="97.8"/>
			<line class="st3" x1="244" y1="-378.9" x2="-104.4" y2="100.6"/>
			<line class="st3" x1="247.7" y1="-376.1" x2="-100.6" y2="103.4"/>
			<line class="st3" x1="251.5" y1="-373.3" x2="-96.9" y2="106.1"/>
			<line class="st3" x1="255.2" y1="-370.6" x2="-93.2" y2="108.9"/>
			<line class="st3" x1="258.9" y1="-367.8" x2="-89.5" y2="111.7"/>
			<line class="st3" x1="262.6" y1="-365" x2="-85.8" y2="114.5"/>
			<line class="st3" x1="266.3" y1="-362.2" x2="-82" y2="117.3"/>
			<line class="st3" x1="270.1" y1="-359.4" x2="-78.3" y2="120.1"/>
			<line class="st3" x1="273.8" y1="-356.6" x2="-74.6" y2="122.9"/>
			<line class="st3" x1="277.5" y1="-353.8" x2="-70.9" y2="125.7"/>
			<line class="st3" x1="281.2" y1="-351" x2="-67.1" y2="128.5"/>
			<line class="st3" x1="284.9" y1="-348.2" x2="-63.4" y2="131.3"/>
			<line class="st3" x1="288.7" y1="-345.4" x2="-59.7" y2="134.1"/>
			<line class="st3" x1="292.4" y1="-342.6" x2="-56" y2="136.9"/>
			<line class="st3" x1="296.1" y1="-339.8" x2="-52.3" y2="139.7"/>
			<line class="st3" x1="299.8" y1="-337" x2="-48.5" y2="142.5"/>
			<line class="st3" x1="303.6" y1="-334.2" x2="-44.8" y2="145.3"/>
			<line class="st3" x1="307.3" y1="-331.4" x2="-41.1" y2="148"/>
			<line class="st3" x1="311" y1="-328.7" x2="-37.4" y2="150.8"/>
			<line class="st3" x1="314.7" y1="-325.9" x2="-33.6" y2="153.6"/>
			<line class="st3" x1="318.4" y1="-323.1" x2="-29.9" y2="156.4"/>
			<line class="st3" x1="322.2" y1="-320.3" x2="-26.2" y2="159.2"/>
			<line class="st3" x1="325.9" y1="-317.5" x2="-22.5" y2="162"/>
			<line class="st3" x1="329.6" y1="-314.7" x2="-18.8" y2="164.8"/>
			<line class="st3" x1="333.3" y1="-311.9" x2="-15" y2="167.6"/>
			<line class="st3" x1="337.1" y1="-309.1" x2="-11.3" y2="170.4"/>
			<line class="st3" x1="340.8" y1="-306.3" x2="-7.6" y2="173.2"/>
			<line class="st3" x1="344.5" y1="-303.5" x2="-3.9" y2="176"/>
			<line class="st3" x1="348.2" y1="-300.7" x2="-0.1" y2="178.8"/>
			<line class="st3" x1="351.9" y1="-297.9" x2="3.6" y2="181.6"/>
			<line class="st3" x1="355.7" y1="-295.1" x2="7.3" y2="184.4"/>
			<line class="st3" x1="359.4" y1="-292.3" x2="11" y2="187.2"/>
			<line class="st3" x1="363.1" y1="-289.5" x2="14.7" y2="190"/>
			<line class="st3" x1="366.8" y1="-286.7" x2="18.5" y2="192.7"/>
			<line class="st3" x1="370.6" y1="-284" x2="22.2" y2="195.5"/>
			<line class="st3" x1="374.3" y1="-281.2" x2="25.9" y2="198.3"/>
			<line class="st3" x1="378" y1="-278.4" x2="29.6" y2="201.1"/>
			<line class="st3" x1="381.7" y1="-275.6" x2="33.3" y2="203.9"/>
			<line class="st3" x1="385.4" y1="-272.8" x2="37.1" y2="206.7"/>
			<line class="st3" x1="389.2" y1="-270" x2="40.8" y2="209.5"/>
			<line class="st3" x1="392.9" y1="-267.2" x2="44.5" y2="212.3"/>
			<line class="st3" x1="396.6" y1="-264.4" x2="48.2" y2="215.1"/>
			<line class="st3" x1="400.3" y1="-261.6" x2="52" y2="217.9"/>
			<line class="st3" x1="404.1" y1="-258.8" x2="55.7" y2="220.7"/>
			<line class="st3" x1="407.8" y1="-256" x2="59.4" y2="223.5"/>
			<line class="st3" x1="411.5" y1="-253.2" x2="63.1" y2="226.3"/>
			<line class="st3" x1="415.2" y1="-250.4" x2="66.8" y2="229.1"/>
			<line class="st3" x1="418.9" y1="-247.6" x2="70.6" y2="231.9"/>
			<line class="st3" x1="422.7" y1="-244.8" x2="74.3" y2="234.6"/>
			<line class="st3" x1="426.4" y1="-242.1" x2="78" y2="237.4"/>
			<line class="st3" x1="430.1" y1="-239.3" x2="81.7" y2="240.2"/>
			<line class="st3" x1="433.8" y1="-236.5" x2="85.5" y2="243"/>
			<line class="st3" x1="437.6" y1="-233.6" x2="89.3" y2="245.9"/>
			<line class="st3" x1="441.4" y1="-230.8" x2="93" y2="248.7"/>
			<line class="st3" x1="445.1" y1="-228" x2="96.7" y2="251.5"/>
			<line class="st3" x1="448.8" y1="-225.2" x2="100.4" y2="254.3"/>
			<line class="st3" x1="452.5" y1="-222.4" x2="104.1" y2="257.1"/>
			<line class="st3" x1="456.2" y1="-219.6" x2="107.9" y2="259.8"/>
			<line class="st3" x1="460" y1="-216.9" x2="111.6" y2="262.6"/>
			<line class="st3" x1="463.7" y1="-214.1" x2="115.3" y2="265.4"/>
			<line class="st3" x1="467.4" y1="-211.3" x2="119" y2="268.2"/>
			<line class="st3" x1="471.1" y1="-208.5" x2="122.8" y2="271"/>
			<line class="st3" x1="474.9" y1="-205.7" x2="126.5" y2="273.8"/>
			<line class="st3" x1="478.6" y1="-202.9" x2="130.2" y2="276.6"/>
			<line class="st3" x1="482.3" y1="-200.1" x2="133.9" y2="279.4"/>
			<line class="st3" x1="486" y1="-197.3" x2="137.6" y2="282.2"/>
			<line class="st3" x1="489.7" y1="-194.5" x2="141.4" y2="285"/>
			<line class="st3" x1="493.5" y1="-191.7" x2="145.1" y2="287.8"/>
			<line class="st3" x1="497.2" y1="-188.9" x2="148.8" y2="290.6"/>
			<line class="st3" x1="500.9" y1="-186.1" x2="152.5" y2="293.4"/>
			<line class="st3" x1="504.6" y1="-183.3" x2="156.3" y2="296.2"/>
			<line class="st3" x1="508.4" y1="-180.5" x2="160" y2="299"/>
			<line class="st3" x1="512.1" y1="-177.7" x2="163.7" y2="301.8"/>
			<line class="st3" x1="515.8" y1="-174.9" x2="167.4" y2="304.5"/>
			<line class="st3" x1="519.5" y1="-172.2" x2="171.1" y2="307.3"/>
			<line class="st3" x1="523.2" y1="-169.4" x2="174.9" y2="310.1"/>
			<line class="st3" x1="527" y1="-166.6" x2="178.6" y2="312.9"/>
			<line class="st3" x1="530.7" y1="-163.8" x2="182.3" y2="315.7"/>
			<line class="st3" x1="534.4" y1="-161" x2="186" y2="318.5"/>
			<line class="st3" x1="538.1" y1="-158.2" x2="189.8" y2="321.3"/>
			<line class="st3" x1="541.9" y1="-155.4" x2="193.5" y2="324.1"/>
			<line class="st3" x1="545.6" y1="-152.6" x2="197.2" y2="326.9"/>
			<line class="st3" x1="549.3" y1="-149.8" x2="200.9" y2="329.7"/>
			<line class="st3" x1="553" y1="-147" x2="204.6" y2="332.5"/>
			<line class="st3" x1="556.7" y1="-144.2" x2="208.4" y2="335.3"/>
			<line class="st3" x1="560.5" y1="-141.4" x2="212.1" y2="338.1"/>
			<line class="st3" x1="564.2" y1="-138.6" x2="215.8" y2="340.9"/>
			<line class="st3" x1="567.9" y1="-135.8" x2="219.5" y2="343.7"/>
			<line class="st3" x1="571.6" y1="-133" x2="223.3" y2="346.5"/>
			<line class="st3" x1="575.3" y1="-130.3" x2="227" y2="349.2"/>
			<line class="st3" x1="579.1" y1="-127.5" x2="230.7" y2="352"/>
			<line class="st3" x1="582.8" y1="-124.7" x2="234.4" y2="354.8"/>
			<line class="st3" x1="586.5" y1="-121.9" x2="238.1" y2="357.6"/>
			<line class="st3" x1="590.2" y1="-119.1" x2="241.9" y2="360.4"/>
			<line class="st3" x1="594" y1="-116.3" x2="245.6" y2="363.2"/>
			<line class="st3" x1="597.7" y1="-113.5" x2="249.3" y2="366"/>
			<line class="st3" x1="601.4" y1="-110.7" x2="253" y2="368.8"/>
			<line class="st3" x1="605.1" y1="-107.9" x2="256.8" y2="371.6"/>
			<line class="st3" x1="608.8" y1="-105.1" x2="260.5" y2="374.4"/>
			<line class="st3" x1="612.6" y1="-102.3" x2="264.2" y2="377.2"/>
			<line class="st3" x1="616.3" y1="-99.5" x2="267.9" y2="380"/>
			<line class="st3" x1="620" y1="-96.7" x2="271.6" y2="382.8"/>
			<line class="st3" x1="623.7" y1="-93.9" x2="275.4" y2="385.6"/>
			<line class="st3" x1="627.5" y1="-91.1" x2="279.1" y2="388.4"/>
			<line class="st3" x1="631.2" y1="-88.3" x2="282.8" y2="391.1"/>
			<line class="st3" x1="634.9" y1="-85.6" x2="286.5" y2="393.9"/>
			<line class="st3" x1="638.6" y1="-82.8" x2="290.3" y2="396.7"/>
			<line class="st3" x1="642.3" y1="-80" x2="294" y2="399.5"/>
			<line class="st3" x1="646.1" y1="-77.2" x2="297.7" y2="402.3"/>
			<line class="st3" x1="649.8" y1="-74.4" x2="301.4" y2="405.1"/>
			<line class="st3" x1="653.5" y1="-71.6" x2="305.1" y2="407.9"/>
			<line class="st3" x1="657.2" y1="-68.8" x2="308.9" y2="410.7"/>
			<line class="st3" x1="661" y1="-66" x2="312.6" y2="413.5"/>
			<line class="st3" x1="664.7" y1="-63.2" x2="316.3" y2="416.3"/>
			<line class="st3" x1="668.4" y1="-60.4" x2="320" y2="419.1"/>
			<line class="st3" x1="672.1" y1="-57.6" x2="323.7" y2="421.9"/>
		</g>
	</g>
	<g class="st1">
		<g>
			<line class="st4" x1="8.8" y1="-121.7" x2="8.8" y2="-120.7"/>
			<line class="st5" x1="8.8" y1="-118.8" x2="8.8" y2="144.5"/>
			<line class="st4" x1="8.8" y1="145.4" x2="8.8" y2="146.4"/>
		</g>
	</g>
	<g class="st1">
		<g>
			<line class="st4" x1="495" y1="-121.7" x2="495" y2="-120.7"/>
			<line class="st5" x1="495" y1="-118.8" x2="495" y2="144.5"/>
			<line class="st4" x1="495" y1="145.4" x2="495" y2="146.4"/>
		</g>
	</g>
	<g class="st1">
		<g>
			<line class="st6" x1="514.7" y1="140.2" x2="513.7" y2="140.2"/>
			<line class="st7" x1="511.8" y1="140.2" x2="-9.8" y2="140.2"/>
			<line class="st6" x1="-10.7" y1="140.2" x2="-11.7" y2="140.2"/>
		</g>
	</g>
	<g class="st1">
		<g>
			<line class="st6" x1="512.9" y1="-113.7" x2="512" y2="-113.7"/>
			<line class="st7" x1="510.1" y1="-113.7" x2="-11.5" y2="-113.7"/>
			<line class="st6" x1="-12.5" y1="-113.7" x2="-13.4" y2="-113.7"/>
		</g>
	</g>
	<text transform="matrix(1 0 0 1 201.0013 26.3488)" class="st8 st9 st10">zone insertion du logo</text>
	<text transform="matrix(1 0 0 1 13.5013 133.1654)" class="st8 st9 st10">zone de protection</text>
	<line class="st11" x1="-14" y1="117.8" x2="528.6" y2="117.8"/>
</g>
<g id="FR_text_Pantone" class="st0">
	<g class="st1">
		<g>
			<path class="st12" d="M9.3,182.4c-0.4-1.3-0.5-2.7-0.5-4.2v-18.7h2.3v18.5c0,1.5,0.1,2.9,0.5,4.1c1,3,3.4,4.7,7.4,4.7
				c3.9,0,6.3-1.8,7.3-4.7c0.4-1.2,0.5-2.5,0.5-4.3v-18.3h2.3v18.7c0,1.6-0.2,3.1-0.6,4.3c-1.3,4-4.6,6.3-9.7,6.3
				C13.8,188.8,10.6,186.5,9.3,182.4z"/>
			<path class="st12" d="M36.5,167.6h1.9l0.4,2.8c2.3-2,4.7-3.3,7.3-3.3c3.2,0,6,2.2,6,7.2v14.1h-2.3v-13.3c0-3.3-0.9-5.9-4-5.9
				c-2.5,0-4.8,1.6-6.9,3.6v15.6h-2.3V167.6z"/>
			<path class="st12" d="M57.5,177.6c0-6.4,3.5-10.5,8.2-10.5c5,0,7.9,4.1,7.9,10.5v0.6H59.9c0,4.7,2.5,8.5,7.4,8.5
				c1.9,0,3.6-0.6,5-1.4l0.8,1.7c-1.6,1.1-4.1,1.8-6.3,1.8C60.7,188.8,57.5,183.8,57.5,177.6z M71,176.1c-0.1-3.6-1.8-7-5.3-7
				c-3.4,0-5.6,3.1-5.7,7H71z"/>
			<path class="st12" d="M88.5,185.2c1.1,0.6,2.5,1.4,5,1.4c2.5,0,4.8-1.1,4.8-3.8c0-5-9.7-3.5-9.7-10.3c0-2.9,2.2-5.5,6.6-5.5
				c1.8,0,3.5,0.4,4.8,1v2.2c-1.3-0.6-2.7-1.1-4.7-1.1c-2.1,0-4.4,0.7-4.4,3.3c0,5.2,9.7,3.5,9.7,10.4c0,3.9-3.2,5.9-7.3,5.9
				c-2.5,0-4.5-0.9-5.6-1.7L88.5,185.2z"/>
			<path class="st12" d="M104.7,177.9c0-6.1,3.6-10.9,9.3-10.9c5.6,0,9.2,4.8,9.2,10.9c0,6-3.6,10.8-9.3,10.8
				C108.3,188.8,104.7,183.9,104.7,177.9z M120.8,177.9c0-5.2-2.7-8.8-6.8-8.8c-4.1,0-6.8,3.6-6.8,8.8c0,5.1,2.7,8.7,6.8,8.7
				C118,186.7,120.8,183.1,120.8,177.9z"/>
			<path class="st12" d="M127.4,178.2c0-5.9,3.6-11.1,10-11.1c1.8,0,3.6,0.5,5,1.2v2.2c-1.3-0.7-2.9-1.3-5-1.3
				c-4.7,0-7.6,3.7-7.6,8.8c0,5.6,2.9,8.8,7.3,8.8c2.3,0,3.9-0.7,5.1-1.4l0.8,1.8c-1.4,0.9-3.7,1.8-6.1,1.8
				C130.8,188.8,127.4,183.9,127.4,178.2z"/>
			<path class="st12" d="M147.4,160.5c0-1,0.7-1.8,1.7-1.8c1.1,0,1.7,0.7,1.7,1.8c0,1.1-0.7,1.8-1.7,1.8
				C148.1,162.3,147.4,161.6,147.4,160.5z M148,167.6h2.3v20.8H148V167.6z"/>
			<path class="st12" d="M156.3,177.6c0-6.4,3.5-10.5,8.2-10.5c5,0,7.9,4.1,7.9,10.5v0.6h-13.6c0,4.7,2.5,8.5,7.4,8.5
				c1.9,0,3.6-0.6,5-1.4l0.8,1.7c-1.6,1.1-4.1,1.8-6.3,1.8C159.5,188.8,156.3,183.8,156.3,177.6z M169.8,176.1c-0.1-3.6-1.8-7-5.3-7
				c-3.4,0-5.6,3.1-5.7,7H169.8z M165.6,158.6h2.9l-3.6,6.5H163L165.6,158.6z"/>
			<path class="st12" d="M179.2,184.2v-14.7h-3.4v-2h3.4v-4.7l2.3-0.8v5.5h6.1l-0.8,2h-5.4v14.5c0,1.8,0.8,2.6,2.2,2.6
				c1.4,0,2.6-0.6,3.5-1.2l1,1.7c-1.2,0.9-2.9,1.6-4.9,1.6C180.6,188.8,179.2,187.2,179.2,184.2z"/>
			<path class="st12" d="M191.6,177.6c0-6.4,3.5-10.5,8.2-10.5c5,0,7.9,4.1,7.9,10.5v0.6H194c0,4.7,2.5,8.5,7.4,8.5
				c1.9,0,3.6-0.6,5-1.4l0.8,1.7c-1.6,1.1-4.1,1.8-6.3,1.8C194.8,188.8,191.6,183.8,191.6,177.6z M205,176.1c-0.1-3.6-1.8-7-5.3-7
				c-3.4,0-5.6,3.1-5.7,7H205z M200.8,158.6h2.9l-3.6,6.5h-1.9L200.8,158.6z"/>
			<path class="st12" d="M221.6,178.2c0-6.8,4.8-11.2,10.4-11.2c1.4,0,2.5,0.1,3.8,0.5v-10.3h2.3v30.1c-1.2,0.7-3.5,1.4-6.2,1.4
				C226.4,188.8,221.6,185.3,221.6,178.2z M235.8,186v-16.2c-1.2-0.4-2.1-0.7-3.6-0.7c-4.3,0-8.2,3.2-8.2,9c0,5.1,2.9,8.5,8.2,8.5
				C233.5,186.7,234.9,186.4,235.8,186z"/>
			<path class="st12" d="M245.4,185c-0.4-1.1-0.4-2.1-0.4-3.5v-13.9h2.3v13c0,1.5,0,2.5,0.4,3.5c0.5,1.8,1.8,2.5,3.6,2.5
				c2.7,0,5.4-1.8,6.5-3.4v-15.7h2.3v12.9c0,4.8,0.2,6.8,0.4,7.9h-2.2l-0.5-2.5c-2,1.7-4.4,2.9-7.1,2.9
				C248.7,188.8,246.3,187.8,245.4,185z"/>
			<path class="st12" d="M298.7,186.6c-1.6,0.9-5,2.1-9,2.1c-8.2,0-13.9-6-13.9-14.5c0-8.9,5.8-15.1,14.5-15.1
				c3.3,0,6.2,0.9,7.7,1.6v2.2c-2-1-4.5-1.8-7.6-1.8c-7.7,0-12.2,5.3-12.2,12.6c0,7.9,4.7,12.8,11.8,12.8c2.6,0,4.9-0.6,6.3-1.3
				v-10.5h2.3V186.6z"/>
			<path class="st12" d="M305.7,167.6h1.9l0.3,2.8c2.5-2.8,4.3-3.3,5.9-3.3c0.8,0,1.5,0.2,1.9,0.4l-0.8,2.3
				c-0.4-0.1-0.7-0.3-1.5-0.3c-1.6,0-3.2,1.1-5.4,3.4v15.5h-2.3V167.6z"/>
			<path class="st12" d="M317.8,177.9c0-6.1,3.6-10.9,9.3-10.9c5.6,0,9.2,4.8,9.2,10.9c0,6-3.6,10.8-9.3,10.8
				C321.4,188.8,317.8,183.9,317.8,177.9z M333.8,177.9c0-5.2-2.7-8.8-6.8-8.8c-4.1,0-6.8,3.6-6.8,8.8c0,5.1,2.7,8.7,6.8,8.7
				C331.1,186.7,333.8,183.1,333.8,177.9z"/>
			<path class="st12" d="M342.2,185c-0.4-1.1-0.4-2.1-0.4-3.5v-13.9h2.3v13c0,1.5,0,2.5,0.4,3.5c0.5,1.8,1.8,2.5,3.6,2.5
				c2.7,0,5.4-1.8,6.5-3.4v-15.7h2.3v12.9c0,4.8,0.2,6.8,0.4,7.9h-2.2l-0.5-2.5c-2,1.7-4.4,2.9-7.1,2.9
				C345.5,188.8,343,187.8,342.2,185z"/>
			<path class="st12" d="M363.8,168.3c2.2-0.8,4.4-1.2,6.4-1.2c6.2,0,10.2,3.8,10.2,10.8c0,6.9-4.6,11-10.3,11
				c-1.4,0-2.9-0.4-3.9-0.8v10.8h-2.3V168.3z M370.1,186.7c5,0,7.9-3.6,7.9-9c0-6-3.5-8.6-7.8-8.6c-1.4,0-2.7,0.2-4,0.7v15.9
				C367.5,186.4,368.6,186.7,370.1,186.7z"/>
			<path class="st12" d="M384.6,177.6c0-6.4,3.5-10.5,8.2-10.5c5,0,7.9,4.1,7.9,10.5v0.6H387c0,4.7,2.5,8.5,7.4,8.5
				c1.9,0,3.6-0.6,5-1.4l0.8,1.7c-1.6,1.1-4.1,1.8-6.3,1.8C387.8,188.8,384.6,183.8,384.6,177.6z M398.1,176.1c-0.1-3.6-1.8-7-5.3-7
				c-3.4,0-5.6,3.1-5.7,7H398.1z"/>
		</g>
		<g>
			<path class="st13" d="M480.3,186.5c-0.1,0.6-0.4,0.9-0.6,0.9c-0.4-0.1-0.9-1-0.8-2.2c0.1-1,0.7-2.1,1.5-3.2
				C480.6,183.7,480.6,185.2,480.3,186.5z M480.8,180.4c-0.6-2.6-1.8-5.4-3.5-8.1c-2.2-3.4-7.2-9.4-15.5-10.8l-0.1,0.7
				c8.1,1.4,12.9,7.2,15.1,10.5c1.7,2.7,3,5.7,3.5,8.3c-1.1,1.3-1.8,2.7-2,4c-0.2,1.6,0.5,2.8,1.3,3c0,0,0.1,0,0.2,0
				c0.3,0,1-0.2,1.3-1.4c0.4-1.5,0.4-3.4,0-5.4c1.6-1.8,4-3.5,6.8-4.7l-0.3-0.7C484.8,177,482.5,178.6,480.8,180.4z M494.2,172.1
				c-0.5-0.5-1.2-0.8-2-0.8c-0.8,0-1.4,0.3-1.9,0.8c-0.5,0.5-0.8,1.2-0.8,1.9c0,0.8,0.3,1.4,0.8,1.9c0.5,0.5,1.2,0.8,1.9,0.8
				c0.8,0,1.4-0.3,2-0.8c0.5-0.5,0.8-1.2,0.8-1.9C495,173.3,494.7,172.7,494.2,172.1z"/>
			<g>
				<path class="st14" d="M433.7,165.9c1.7,0,2.9,0.5,3.7,1.5c0.8,1,1.3,2.7,1.3,5.1c0,1-0.1,2-0.2,2.8c-0.1,0.8-0.4,1.5-0.8,2
					c-0.4,0.5-0.9,1-1.5,1.3c-0.6,0.3-1.5,0.4-2.5,0.4c-1.7,0-2.9-0.5-3.6-1.5c-0.7-1-1.1-2.7-1.1-5c0-0.8,0-1.6,0.2-2.4
					c0.1-0.8,0.3-1.5,0.6-2.1c0.3-0.6,0.8-1.1,1.4-1.5C431.8,166.1,432.6,165.9,433.7,165.9z M440.5,192.4c0,5.8-5.6,6.1-6.8,6.1
					c-2,0-7.3-0.1-7.3-6.1c0-6.2,6.5-6.1,10.2-5.8C438.3,187.7,440.5,189.6,440.5,192.4z M462.1,154c0.3,0.6,0.4,1.1,0.4,1.6
					c0,0.7-0.2,1.4-0.6,2c-0.5,0.6-1.4,1.1-2.4,1.1c-0.5,0-1-0.1-1.4-0.4c-0.6-0.4-1-0.9-1-1.7c0-0.6,0.2-1.2,0.5-1.7
					c0.3-0.4,0.4-0.9,0.4-1.4c0-0.6-0.2-1-0.8-1.3c-0.2-0.1-0.5-0.1-0.8-0.1c-1.1,0-2.7,0.5-3.6,1.6c-1,1.2-1.5,3.1-1.5,5.6v6.2
					h10.1v22.8h-4.9v-21.1h-5.3v21.1h-4.9v-21.1h-5.4c2.1,2.1,2.2,4.8,2.2,5.5c0,3-2.5,6.6-6.8,7.4c0,2.5,4.4,4.8,6.3,6.5
					c4.6,4.1,2.1,10.2-2.7,12c-9.5,3.6-18.3-1.2-18.3-5.9c0-5.2,6.3-7.8,11.7-7.8c0.8,0,1.6,0,2.3,0.1c-0.5-0.6-1.5-2.4-1.5-4.4
					c-0.1,0-0.2,0-0.3,0c-6.5,0-9.7-4.3-9.7-7.6c0-3.7,3.1-8.4,9.4-8.4c2,0,3.7,0.5,4.9,1h7.9v-1.8c0-1.2,0.1-2.3,0.2-3.2
					c0.1-0.9,0.3-1.7,0.5-2.4c0.2-0.7,0.5-1.3,0.8-1.8c0.3-0.5,0.6-1,1-1.4c1-1.3,2.2-2.3,3.4-3c1.3-0.8,2.8-1.2,4.4-1.2
					c0.8,0,1.5,0.1,2,0.3c0.8,0.3,1.5,0.7,2.1,1.3C461.4,152.8,461.8,153.4,462.1,154z"/>
			</g>
		</g>
	</g>
	<path class="st15" d="M496,140.3c0-0.3-0.2-0.6-0.8-0.6H8.9c-0.5,0-0.7,0.3-0.7,0.6l0,0c0,0.3,0.1,0.6,0.7,0.6h486.4
		C495.8,140.9,496,140.6,496,140.3L496,140.3z"/>
</g>
<g id="UK_text_Pantone" class="st0">
	<g id="text_1_" class="st1">
		<g>
			<path class="st12" d="M229.6,140.9h1.4l10.5,28.1H239l-2.8-7.7h-11.8l-2.8,7.7h-2.5L229.6,140.9z M235.4,159.3l-3.3-9.2l-1.8-5.1
				h-0.1c-0.3,1.1-0.8,2.4-1.8,5.1l-3.3,9.2H235.4z"/>
			<path class="st12" d="M356.7,167.6c-2.4,1.3-4.9,1.8-7.3,1.8c-8,0-13-5.9-13-14.1c0-8.2,5.5-14.6,13.5-14.6
				c2.9,0,5.5,0.8,6.7,1.5v2.2c-1.8-1-3.8-1.7-6.7-1.7c-6.7,0-11.1,5.2-11.1,12.3c0,7.2,4.1,12.3,10.8,12.3c2.5,0,4.7-0.7,6.5-1.7
				L356.7,167.6z"/>
			<path class="st12" d="M360.3,158.9c0-5.9,3.4-10.5,9-10.5c5.4,0,8.9,4.7,8.9,10.5c0,5.8-3.4,10.5-9,10.5
				C363.8,169.4,360.3,164.7,360.3,158.9z M375.8,158.9c0-5-2.6-8.5-6.5-8.5c-3.9,0-6.6,3.5-6.6,8.5c0,5,2.6,8.5,6.5,8.5
				C373.2,167.4,375.8,163.9,375.8,158.9z"/>
			<path class="st12" d="M383.5,148.9h1.9l0.3,2.7c2.2-1.9,4.5-3.2,7.1-3.2c2.3,0,4.2,1.1,5.1,3.6c2.4-2.2,4.9-3.6,7.6-3.6
				c3.1,0,5.6,2.2,5.6,7V169h-2.3v-12.8c0-3.2-0.8-5.7-3.7-5.7c-2.4,0-4.7,1.6-6.8,3.4c0,0.5,0.1,1,0.1,1.4V169h-2.3v-12.8
				c0-3.2-0.8-5.7-3.7-5.7c-2.5,0-4.6,1.6-6.7,3.4V169h-2.3V148.9z"/>
			<path class="st12" d="M417.4,149.6c2.1-0.8,4.2-1.2,6.2-1.2c6,0,9.9,3.7,9.9,10.4c0,6.7-4.4,10.6-10,10.6c-1.4,0-2.8-0.3-3.8-0.8
				V179h-2.3V149.6z M423.5,167.4c4.9,0,7.6-3.4,7.6-8.7c0-5.8-3.4-8.3-7.5-8.3c-1.4,0-2.6,0.2-3.9,0.6v15.4
				C421,167.1,422,167.4,423.5,167.4z"/>
			<path class="st12" d="M449.8,166.5c-1.6,1.6-3.7,2.8-6.2,2.8c-3.6,0-6.2-2.3-6.2-6.1c0-2.7,1.4-4.5,3.4-5.4
				c1.4-0.6,2.9-0.8,4.9-0.9l4-0.1v-1.5c0-3.4-2-4.9-4.5-4.9c-2.6,0-4.2,0.9-5.6,1.7l-1-1.7c2.3-1.5,4.8-2,6.7-2
				c3.7,0,6.7,1.8,6.7,6.6v6.4c0,4.7,0.2,6.6,0.4,7.6h-2.1L449.8,166.5z M445.9,158.9c-1.9,0-3.1,0.3-4.1,0.8c-1.3,0.7-2,2-2,3.4
				c0,2.4,1.5,4.2,4,4.2c2.8,0,4.8-2,5.9-3.1v-5.4L445.9,158.9z"/>
			<path class="st12" d="M458.3,148.9h1.9l0.3,2.7c2.2-1.9,4.5-3.2,7.1-3.2c3.1,0,5.8,2.2,5.8,7V169h-2.3v-12.8
				c0-3.2-0.9-5.7-3.9-5.7c-2.5,0-4.6,1.6-6.7,3.4V169h-2.3V148.9z"/>
			<path class="st12" d="M476.3,176.5c0.7,0.3,1.6,0.5,2.7,0.5c2.8,0,5.1-2.1,6.7-7.8l-8.8-20.3h2.5l7.2,17.2h0.1l5.6-17.2h2.4
				l-7.4,22c-2.3,7-5.3,8.1-8.4,8.1c-1.4,0-2.3-0.2-3.1-0.6L476.3,176.5z"/>
		</g>
		<g>
			<path class="st13" d="M310.8,166.3c-0.1,0.5-0.4,0.8-0.6,0.8c-0.4-0.1-0.8-0.9-0.7-2c0.1-0.9,0.6-1.9,1.4-2.9
				C311.1,163.7,311.1,165.1,310.8,166.3z M311.3,160.7c-0.6-2.4-1.7-5-3.3-7.5c-2.1-3.2-6.6-8.7-14.4-10l-0.1,0.7
				c7.5,1.3,11.9,6.6,13.9,9.7c1.6,2.5,2.7,5.2,3.3,7.7c-1,1.2-1.7,2.5-1.9,3.7c-0.2,1.5,0.5,2.6,1.2,2.8c0,0,0.1,0,0.2,0
				c0.3,0,0.9-0.2,1.2-1.3c0.4-1.4,0.3-3.2,0-5c1.5-1.7,3.7-3.3,6.3-4.4l-0.3-0.6C315,157.5,312.9,159,311.3,160.7z M323.7,153
				c-0.5-0.5-1.1-0.7-1.8-0.7c-0.7,0-1.3,0.2-1.8,0.7c-0.5,0.5-0.8,1.1-0.8,1.8c0,0.7,0.2,1.3,0.8,1.8c0.5,0.5,1.1,0.7,1.8,0.7
				c0.7,0,1.3-0.2,1.8-0.7c0.5-0.5,0.8-1.1,0.8-1.8C324.4,154.1,324.2,153.5,323.7,153z"/>
			<g>
				<path class="st14" d="M267.7,147.3c1.5,0,2.7,0.5,3.5,1.4c0.8,0.9,1.2,2.5,1.2,4.8c0,0.9-0.1,1.8-0.2,2.6
					c-0.1,0.7-0.4,1.4-0.7,1.9c-0.3,0.5-0.8,0.9-1.4,1.2c-0.6,0.3-1.4,0.4-2.3,0.4c-1.6,0-2.7-0.5-3.3-1.4c-0.7-1-1-2.5-1-4.6
					c0-0.7,0-1.5,0.1-2.2c0.1-0.7,0.3-1.4,0.6-2c0.3-0.6,0.7-1,1.3-1.4C265.8,147.5,266.6,147.3,267.7,147.3z M273.9,171.8
					c0,5.4-5.2,5.6-6.3,5.6c-1.8,0-6.8,0-6.8-5.6c0-5.8,6.1-5.7,9.5-5.4C271.9,167.4,273.9,169.2,273.9,171.8z M293.9,136.2
					c0.2,0.5,0.4,1.1,0.4,1.5c0,0.7-0.2,1.3-0.6,1.8c-0.4,0.6-1.3,1-2.2,1c-0.5,0-0.9-0.1-1.3-0.3c-0.6-0.3-0.9-0.8-0.9-1.5
					c0-0.6,0.2-1.1,0.5-1.6c0.3-0.4,0.4-0.8,0.4-1.3c0-0.6-0.2-1-0.7-1.2c-0.2-0.1-0.4-0.1-0.7-0.1c-1,0-2.5,0.5-3.3,1.5
					c-0.9,1.1-1.4,2.9-1.4,5.2v5.8h9.4V168h-4.5v-19.6H284V168h-4.5v-19.6h-5c1.9,1.9,2.1,4.4,2.1,5.1c0,2.8-2.3,6.1-6.3,6.9
					c0,2.4,4,4.4,5.8,6c4.2,3.8,2,9.4-2.5,11.1c-8.8,3.4-16.9-1.1-16.9-5.5c0-4.8,5.8-7.3,10.8-7.3c0.8,0,1.5,0,2.1,0.1
					c-0.5-0.6-1.4-2.2-1.4-4.1c-0.1,0-0.2,0-0.3,0c-6,0-9-4-9-7.1c0-3.4,2.9-7.8,8.7-7.8c1.8,0,3.4,0.5,4.5,0.9h7.3v-1.7
					c0-1.1,0.1-2.1,0.2-2.9c0.1-0.8,0.3-1.6,0.5-2.2c0.2-0.6,0.4-1.2,0.7-1.7c0.3-0.5,0.6-0.9,0.9-1.3c1-1.2,2-2.1,3.2-2.8
					c1.2-0.7,2.6-1.1,4-1.1c0.7,0,1.4,0.1,1.9,0.3c0.7,0.3,1.4,0.7,1.9,1.2C293.3,135.1,293.7,135.6,293.9,136.2z"/>
			</g>
		</g>
	</g>
	<path id="line_3_" class="st15" d="M213,160.3c0-0.3-0.2-0.6-0.8-0.6H8.9c-0.5,0-0.7,0.3-0.7,0.6l0,0c0,0.3,0.1,0.6,0.7,0.6h203.4
		C212.8,160.9,213,160.6,213,160.3L213,160.3z"/>
</g>
<g id="FR_text_CMYK" class="st0">
	<g class="st1">
		<g>
			<path class="st3" d="M9.3,182.4c-0.4-1.3-0.5-2.7-0.5-4.2v-18.7h2.3v18.5c0,1.5,0.1,2.9,0.5,4.1c1,3,3.4,4.7,7.4,4.7
				c3.9,0,6.3-1.8,7.3-4.7c0.4-1.2,0.5-2.5,0.5-4.3v-18.3h2.3v18.7c0,1.6-0.2,3.1-0.6,4.3c-1.3,4-4.6,6.3-9.7,6.3
				C13.8,188.8,10.6,186.5,9.3,182.4z"/>
			<path class="st3" d="M36.5,167.6h1.9l0.4,2.8c2.3-2,4.7-3.3,7.3-3.3c3.2,0,6,2.2,6,7.2v14.1h-2.3v-13.3c0-3.3-0.9-5.9-4-5.9
				c-2.5,0-4.8,1.6-6.9,3.6v15.6h-2.3V167.6z"/>
			<path class="st3" d="M57.5,177.6c0-6.4,3.5-10.5,8.2-10.5c5,0,7.9,4.1,7.9,10.5v0.6H59.9c0,4.7,2.5,8.5,7.4,8.5
				c1.9,0,3.6-0.6,5-1.4l0.8,1.7c-1.6,1.1-4.1,1.8-6.3,1.8C60.7,188.8,57.5,183.8,57.5,177.6z M71,176.1c-0.1-3.6-1.8-7-5.3-7
				c-3.4,0-5.6,3.1-5.7,7H71z"/>
			<path class="st3" d="M88.5,185.2c1.1,0.6,2.5,1.4,5,1.4c2.5,0,4.8-1.1,4.8-3.8c0-5-9.7-3.5-9.7-10.3c0-2.9,2.2-5.5,6.6-5.5
				c1.8,0,3.5,0.4,4.8,1v2.2c-1.3-0.6-2.7-1.1-4.7-1.1c-2.1,0-4.4,0.7-4.4,3.3c0,5.2,9.7,3.5,9.7,10.4c0,3.9-3.2,5.9-7.3,5.9
				c-2.5,0-4.5-0.9-5.6-1.7L88.5,185.2z"/>
			<path class="st3" d="M104.7,177.9c0-6.1,3.6-10.9,9.3-10.9c5.6,0,9.2,4.8,9.2,10.9c0,6-3.6,10.8-9.3,10.8
				C108.3,188.8,104.7,183.9,104.7,177.9z M120.8,177.9c0-5.2-2.7-8.8-6.8-8.8c-4.1,0-6.8,3.6-6.8,8.8c0,5.1,2.7,8.7,6.8,8.7
				C118,186.7,120.8,183.1,120.8,177.9z"/>
			<path class="st3" d="M127.4,178.2c0-5.9,3.6-11.1,10-11.1c1.8,0,3.6,0.5,5,1.2v2.2c-1.3-0.7-2.9-1.3-5-1.3
				c-4.7,0-7.6,3.7-7.6,8.8c0,5.6,2.9,8.8,7.3,8.8c2.3,0,3.9-0.7,5.1-1.4l0.8,1.8c-1.4,0.9-3.7,1.8-6.1,1.8
				C130.8,188.8,127.4,183.9,127.4,178.2z"/>
			<path class="st3" d="M147.4,160.5c0-1,0.7-1.8,1.7-1.8c1.1,0,1.7,0.7,1.7,1.8c0,1.1-0.7,1.8-1.7,1.8
				C148.1,162.3,147.4,161.6,147.4,160.5z M148,167.6h2.3v20.8H148V167.6z"/>
			<path class="st3" d="M156.3,177.6c0-6.4,3.5-10.5,8.2-10.5c5,0,7.9,4.1,7.9,10.5v0.6h-13.6c0,4.7,2.5,8.5,7.4,8.5
				c1.9,0,3.6-0.6,5-1.4l0.8,1.7c-1.6,1.1-4.1,1.8-6.3,1.8C159.5,188.8,156.3,183.8,156.3,177.6z M169.8,176.1c-0.1-3.6-1.8-7-5.3-7
				c-3.4,0-5.6,3.1-5.7,7H169.8z M165.6,158.6h2.9l-3.6,6.5H163L165.6,158.6z"/>
			<path class="st3" d="M179.2,184.2v-14.7h-3.4v-2h3.4v-4.7l2.3-0.8v5.5h6.1l-0.8,2h-5.4v14.5c0,1.8,0.8,2.6,2.2,2.6
				c1.4,0,2.6-0.6,3.5-1.2l1,1.7c-1.2,0.9-2.9,1.6-4.9,1.6C180.6,188.8,179.2,187.2,179.2,184.2z"/>
			<path class="st3" d="M191.6,177.6c0-6.4,3.5-10.5,8.2-10.5c5,0,7.9,4.1,7.9,10.5v0.6H194c0,4.7,2.5,8.5,7.4,8.5
				c1.9,0,3.6-0.6,5-1.4l0.8,1.7c-1.6,1.1-4.1,1.8-6.3,1.8C194.8,188.8,191.6,183.8,191.6,177.6z M205,176.1c-0.1-3.6-1.8-7-5.3-7
				c-3.4,0-5.6,3.1-5.7,7H205z M200.8,158.6h2.9l-3.6,6.5h-1.9L200.8,158.6z"/>
			<path class="st3" d="M221.6,178.2c0-6.8,4.8-11.2,10.4-11.2c1.4,0,2.5,0.1,3.8,0.5v-10.3h2.3v30.1c-1.2,0.7-3.5,1.4-6.2,1.4
				C226.4,188.8,221.6,185.3,221.6,178.2z M235.8,186v-16.2c-1.2-0.4-2.1-0.7-3.6-0.7c-4.3,0-8.2,3.2-8.2,9c0,5.1,2.9,8.5,8.2,8.5
				C233.5,186.7,234.9,186.4,235.8,186z"/>
			<path class="st3" d="M245.4,185c-0.4-1.1-0.4-2.1-0.4-3.5v-13.9h2.3v13c0,1.5,0,2.5,0.4,3.5c0.5,1.8,1.8,2.5,3.6,2.5
				c2.7,0,5.4-1.8,6.5-3.4v-15.7h2.3v12.9c0,4.8,0.2,6.8,0.4,7.9h-2.2l-0.5-2.5c-2,1.7-4.4,2.9-7.1,2.9
				C248.7,188.8,246.3,187.8,245.4,185z"/>
			<path class="st3" d="M298.7,186.6c-1.6,0.9-5,2.1-9,2.1c-8.2,0-13.9-6-13.9-14.5c0-8.9,5.8-15.1,14.5-15.1c3.3,0,6.2,0.9,7.7,1.6
				v2.2c-2-1-4.5-1.8-7.6-1.8c-7.7,0-12.2,5.3-12.2,12.6c0,7.9,4.7,12.8,11.8,12.8c2.6,0,4.9-0.6,6.3-1.3v-10.5h2.3V186.6z"/>
			<path class="st3" d="M305.7,167.6h1.9l0.3,2.8c2.5-2.8,4.3-3.3,5.9-3.3c0.8,0,1.5,0.2,1.9,0.4l-0.8,2.3c-0.4-0.1-0.7-0.3-1.5-0.3
				c-1.6,0-3.2,1.1-5.4,3.4v15.5h-2.3V167.6z"/>
			<path class="st3" d="M317.8,177.9c0-6.1,3.6-10.9,9.3-10.9c5.6,0,9.2,4.8,9.2,10.9c0,6-3.6,10.8-9.3,10.8
				C321.4,188.8,317.8,183.9,317.8,177.9z M333.8,177.9c0-5.2-2.7-8.8-6.8-8.8c-4.1,0-6.8,3.6-6.8,8.8c0,5.1,2.7,8.7,6.8,8.7
				C331.1,186.7,333.8,183.1,333.8,177.9z"/>
			<path class="st3" d="M342.2,185c-0.4-1.1-0.4-2.1-0.4-3.5v-13.9h2.3v13c0,1.5,0,2.5,0.4,3.5c0.5,1.8,1.8,2.5,3.6,2.5
				c2.7,0,5.4-1.8,6.5-3.4v-15.7h2.3v12.9c0,4.8,0.2,6.8,0.4,7.9h-2.2l-0.5-2.5c-2,1.7-4.4,2.9-7.1,2.9
				C345.5,188.8,343,187.8,342.2,185z"/>
			<path class="st3" d="M363.8,168.3c2.2-0.8,4.4-1.2,6.4-1.2c6.2,0,10.2,3.8,10.2,10.8c0,6.9-4.6,11-10.3,11
				c-1.4,0-2.9-0.4-3.9-0.8v10.8h-2.3V168.3z M370.1,186.7c5,0,7.9-3.6,7.9-9c0-6-3.5-8.6-7.8-8.6c-1.4,0-2.7,0.2-4,0.7v15.9
				C367.5,186.4,368.6,186.7,370.1,186.7z"/>
			<path class="st3" d="M384.6,177.6c0-6.4,3.5-10.5,8.2-10.5c5,0,7.9,4.1,7.9,10.5v0.6H387c0,4.7,2.5,8.5,7.4,8.5
				c1.9,0,3.6-0.6,5-1.4l0.8,1.7c-1.6,1.1-4.1,1.8-6.3,1.8C387.8,188.8,384.6,183.8,384.6,177.6z M398.1,176.1c-0.1-3.6-1.8-7-5.3-7
				c-3.4,0-5.6,3.1-5.7,7H398.1z"/>
		</g>
		<g>
			<path class="st16" d="M480.3,186.5c-0.1,0.6-0.4,0.9-0.6,0.9c-0.4-0.1-0.9-1-0.8-2.2c0.1-1,0.7-2.1,1.5-3.2
				C480.6,183.7,480.6,185.2,480.3,186.5z M480.8,180.4c-0.6-2.6-1.8-5.4-3.5-8.1c-2.2-3.4-7.2-9.4-15.5-10.8l-0.1,0.7
				c8.1,1.4,12.9,7.2,15.1,10.5c1.7,2.7,3,5.7,3.5,8.3c-1.1,1.3-1.8,2.7-2,4c-0.2,1.6,0.5,2.8,1.3,3c0,0,0.1,0,0.2,0
				c0.3,0,1-0.2,1.3-1.4c0.4-1.5,0.4-3.4,0-5.4c1.6-1.8,4-3.5,6.8-4.7l-0.3-0.7C484.8,177,482.5,178.6,480.8,180.4z M494.2,172.1
				c-0.5-0.5-1.2-0.8-2-0.8c-0.8,0-1.4,0.3-1.9,0.8c-0.5,0.5-0.8,1.2-0.8,1.9c0,0.8,0.3,1.4,0.8,1.9c0.5,0.5,1.2,0.8,1.9,0.8
				c0.8,0,1.4-0.3,2-0.8c0.5-0.5,0.8-1.2,0.8-1.9C495,173.3,494.7,172.7,494.2,172.1z"/>
			<g>
				<path class="st17" d="M433.7,165.9c1.7,0,2.9,0.5,3.7,1.5c0.8,1,1.3,2.7,1.3,5.1c0,1-0.1,2-0.2,2.8c-0.1,0.8-0.4,1.5-0.8,2
					c-0.4,0.5-0.9,1-1.5,1.3c-0.6,0.3-1.5,0.4-2.5,0.4c-1.7,0-2.9-0.5-3.6-1.5c-0.7-1-1.1-2.7-1.1-5c0-0.8,0-1.6,0.2-2.4
					c0.1-0.8,0.3-1.5,0.6-2.1c0.3-0.6,0.8-1.1,1.4-1.5C431.8,166.1,432.6,165.9,433.7,165.9z M440.5,192.4c0,5.8-5.6,6.1-6.8,6.1
					c-2,0-7.3-0.1-7.3-6.1c0-6.2,6.5-6.1,10.2-5.8C438.3,187.7,440.5,189.6,440.5,192.4z M462.1,154c0.3,0.6,0.4,1.1,0.4,1.6
					c0,0.7-0.2,1.4-0.6,2c-0.5,0.6-1.4,1.1-2.4,1.1c-0.5,0-1-0.1-1.4-0.4c-0.6-0.4-1-0.9-1-1.7c0-0.6,0.2-1.2,0.5-1.7
					c0.3-0.4,0.4-0.9,0.4-1.4c0-0.6-0.2-1-0.8-1.3c-0.2-0.1-0.5-0.1-0.8-0.1c-1.1,0-2.7,0.5-3.6,1.6c-1,1.2-1.5,3.1-1.5,5.6v6.2
					h10.1v22.8h-4.9v-21.1h-5.3v21.1h-4.9v-21.1h-5.4c2.1,2.1,2.2,4.8,2.2,5.5c0,3-2.5,6.6-6.8,7.4c0,2.5,4.4,4.8,6.3,6.5
					c4.6,4.1,2.1,10.2-2.7,12c-9.5,3.6-18.3-1.2-18.3-5.9c0-5.2,6.3-7.8,11.7-7.8c0.8,0,1.6,0,2.3,0.1c-0.5-0.6-1.5-2.4-1.5-4.4
					c-0.1,0-0.2,0-0.3,0c-6.5,0-9.7-4.3-9.7-7.6c0-3.7,3.1-8.4,9.4-8.4c2,0,3.7,0.5,4.9,1h7.9v-1.8c0-1.2,0.1-2.3,0.2-3.2
					c0.1-0.9,0.3-1.7,0.5-2.4c0.2-0.7,0.5-1.3,0.8-1.8c0.3-0.5,0.6-1,1-1.4c1-1.3,2.2-2.3,3.4-3c1.3-0.8,2.8-1.2,4.4-1.2
					c0.8,0,1.5,0.1,2,0.3c0.8,0.3,1.5,0.7,2.1,1.3C461.4,152.8,461.8,153.4,462.1,154z"/>
			</g>
		</g>
	</g>
	<path class="st18" d="M496,140.3c0-0.3-0.2-0.6-0.8-0.6H8.9c-0.5,0-0.7,0.3-0.7,0.6l0,0c0,0.3,0.1,0.6,0.7,0.6h486.4
		C495.8,140.9,496,140.6,496,140.3L496,140.3z"/>
</g>
<g id="UK_text_CMYK">
	<g id="text">
		<g>
			<path class="st3" d="M117,144.2h1.9l14.9,40h-3.5l-4-11h-16.8l-4,11h-3.5L117,144.2z M125.3,170.4l-4.7-13.1l-2.5-7.2h-0.1
				c-0.5,1.5-1.2,3.4-2.5,7.2l-4.7,13.1H125.3z"/>
			<path class="st3" d="M298.2,182.2c-3.4,1.8-7,2.6-10.5,2.6c-11.4,0-18.5-8.3-18.5-20c0-11.6,7.9-20.8,19.2-20.8
				c4.2,0,7.8,1.1,9.6,2.2v3.1c-2.6-1.4-5.4-2.4-9.6-2.4c-9.5,0-15.9,7.4-15.9,17.5c0,10.3,5.9,17.5,15.4,17.5c3.5,0,6.7-1,9.3-2.4
				L298.2,182.2z"/>
			<path class="st3" d="M303.3,169.8c0-8.3,4.9-15,12.8-15c7.7,0,12.7,6.7,12.7,15c0,8.3-4.9,14.9-12.8,14.9
				C308.2,184.8,303.3,178.1,303.3,169.8z M325.3,169.8c0-7.1-3.8-12.1-9.3-12.1c-5.6,0-9.4,5-9.4,12.1c0,7.1,3.8,12,9.3,12
				C321.6,181.9,325.3,176.9,325.3,169.8z"/>
			<path class="st3" d="M336.2,155.5h2.7l0.5,3.9c3.1-2.7,6.4-4.6,10.1-4.6c3.2,0,6,1.6,7.3,5.1c3.4-3.1,7-5.1,10.8-5.1
				c4.5,0,8,3.1,8,9.9v19.4h-3.2v-18.3c0-4.6-1.1-8.1-5.3-8.1c-3.4,0-6.7,2.2-9.6,4.9c0.1,0.7,0.1,1.4,0.1,2.1v19.4h-3.2v-18.3
				c0-4.6-1.1-8.1-5.3-8.1c-3.5,0-6.6,2.2-9.6,4.9v21.5h-3.2V155.5z"/>
			<path class="st3" d="M384.6,156.5c3-1.1,6-1.7,8.8-1.7c8.6,0,14,5.3,14,14.8c0,9.6-6.3,15.1-14.2,15.1c-2,0-3.9-0.5-5.4-1.1v14.9
				h-3.2V156.5z M393.2,181.9c7,0,10.8-4.9,10.8-12.3c0-8.2-4.8-11.9-10.7-11.9c-2,0-3.7,0.3-5.5,0.9v21.9
				C389.6,181.4,391.2,181.9,393.2,181.9z"/>
			<path class="st3" d="M430.8,180.7c-2.3,2.3-5.2,4.1-8.8,4.1c-5.1,0-8.9-3.2-8.9-8.7c0-3.8,2-6.4,4.8-7.7c1.9-0.9,4.1-1.2,7-1.3
				l5.7-0.2v-2.2c0-4.8-2.8-7-6.5-7c-3.8,0-6.1,1.3-8,2.5l-1.4-2.5c3.3-2.2,6.8-2.9,9.6-2.9c5.2,0,9.6,2.6,9.6,9.4v9.1
				c0,6.7,0.2,9.4,0.6,10.8h-3L430.8,180.7z M425.2,169.8c-2.7,0.1-4.5,0.5-5.9,1.2c-1.9,1-2.8,2.8-2.8,4.9c0,3.4,2.2,5.9,5.7,5.9
				c4,0,6.9-2.8,8.5-4.5v-7.7L425.2,169.8z"/>
			<path class="st3" d="M442.8,155.5h2.7l0.5,3.9c3.1-2.7,6.4-4.6,10.1-4.6c4.5,0,8.2,3.1,8.2,9.9v19.4H461v-18.3
				c0-4.6-1.3-8.1-5.5-8.1c-3.5,0-6.6,2.2-9.6,4.9v21.5h-3.2V155.5z"/>
			<path class="st3" d="M468.4,194.9c1,0.4,2.3,0.7,3.8,0.7c4,0,7.3-3,9.6-11.1l-12.5-29h3.6l10.3,24.4h0.1l8-24.4h3.4L484.2,187
				c-3.3,9.9-7.6,11.6-12,11.6c-2,0-3.3-0.3-4.5-0.8L468.4,194.9z"/>
		</g>
		<g>
			<path class="st16" d="M232.8,180.4c-0.2,0.8-0.5,1.2-0.8,1.1c-0.5-0.1-1.2-1.3-1-2.9c0.2-1.3,0.9-2.8,1.9-4.2
				C233.2,176.7,233.2,178.7,232.8,180.4z M233.4,172.3c-0.8-3.5-2.4-7.2-4.7-10.6c-2.9-4.5-9.5-12.4-20.5-14.3l-0.2,0.9
				c10.7,1.8,17,9.5,19.9,13.8c2.3,3.6,3.9,7.5,4.7,11c-1.5,1.8-2.4,3.6-2.7,5.3c-0.3,2.1,0.7,3.7,1.8,3.9c0,0,0.1,0,0.2,0
				c0.5,0,1.3-0.2,1.7-1.9c0.5-2,0.5-4.5,0-7.2c2.1-2.4,5.3-4.7,9-6.2l-0.4-0.9C238.7,167.9,235.6,170,233.4,172.3z M251.1,161.4
				c-0.7-0.7-1.6-1.1-2.6-1.1c-1,0-1.9,0.3-2.6,1.1c-0.7,0.7-1.1,1.6-1.1,2.6c0,1,0.4,1.9,1.1,2.6c0.7,0.7,1.6,1.1,2.6,1.1
				c1,0,1.9-0.3,2.6-1.1c0.7-0.7,1.1-1.6,1.1-2.6C252.2,163,251.8,162.2,251.1,161.4z"/>
			<g>
				<path class="st17" d="M171.3,153.3c2.2,0,3.8,0.7,4.9,2c1.1,1.3,1.7,3.6,1.7,6.8c0,1.3-0.1,2.6-0.3,3.7c-0.2,1-0.5,1.9-1.1,2.7
					c-0.5,0.7-1.2,1.3-2,1.7c-0.9,0.4-2,0.6-3.3,0.6c-2.3,0-3.8-0.7-4.7-2c-1-1.4-1.4-3.6-1.4-6.5c0-1,0.1-2.1,0.2-3.2
					c0.1-1,0.4-2,0.8-2.8c0.4-0.8,1-1.5,1.8-2C168.7,153.5,169.8,153.3,171.3,153.3z M180.2,188.2c0,7.7-7.4,8-8.9,8
					c-2.6,0-9.7-0.1-9.7-8c0-8.2,8.6-8.1,13.5-7.7C177.3,181.9,180.2,184.5,180.2,188.2z M208.7,137.5c0.3,0.8,0.5,1.5,0.5,2.2
					c0,1-0.3,1.8-0.8,2.6c-0.6,0.8-1.9,1.4-3.2,1.4c-0.7,0-1.4-0.2-1.9-0.5c-0.9-0.5-1.3-1.2-1.3-2.2c0-0.8,0.2-1.6,0.7-2.3
					c0.4-0.6,0.6-1.2,0.6-1.9c0-0.9-0.3-1.4-1-1.7c-0.2-0.1-0.6-0.2-1.1-0.2c-1.5,0-3.5,0.7-4.7,2.1c-1.3,1.6-2,4.1-2,7.4v8.2H208
					v30.1h-6.4v-27.9h-7v27.9h-6.4v-27.9h-7.1c2.7,2.7,2.9,6.3,2.9,7.3c0,4-3.3,8.6-8.9,9.8c0,3.4,5.8,6.3,8.3,8.6
					c6,5.5,2.8,13.4-3.6,15.8c-12.6,4.8-24.1-1.6-24.1-7.8c0-6.9,8.3-10.3,15.4-10.3c1.1,0,2.1,0,3,0.1c-0.7-0.8-2-3.1-2-5.8
					c-0.1,0-0.3,0-0.4,0c-8.6,0-12.8-5.6-12.8-10.1c0-4.9,4.1-11,12.4-11c2.6,0,4.8,0.7,6.5,1.3h10.4v-2.4c0-1.6,0.1-3,0.2-4.2
					c0.2-1.2,0.4-2.2,0.7-3.1c0.3-0.9,0.6-1.7,1-2.4c0.4-0.7,0.8-1.3,1.3-1.9c1.4-1.7,2.9-3.1,4.6-4c1.7-1,3.7-1.6,5.8-1.6
					c1,0,2,0.1,2.7,0.4c1,0.4,2,0.9,2.8,1.7C207.8,135.9,208.4,136.7,208.7,137.5z"/>
			</g>
		</g>
	</g>
	<path id="line" class="st19" d="M93,160.3c0-0.3-0.1-0.6-0.3-0.6H8.5c-0.2,0-0.3,0.3-0.3,0.6l0,0c0,0.3,0.1,0.6,0.3,0.6h84.2
		C92.9,160.9,93,160.6,93,160.3L93,160.3z"/>
</g>
<g id="IMPAQ_BLACK">
	<g id="IMPAQ">
		<polygon points="58.8,18.9 43.2,117.3 8.9,117.3 24.4,18.9 		"/>
		<polygon points="52.7,117.2 83.8,18.9 121.1,18.9 127.3,70.2 149.5,18.9 186.7,18.9 186.7,117.2 152.3,117.2 155.4,64 
			130.4,117.2 108.9,117.2 102,63.8 88.5,117.2 		"/>
		<g>
			<path d="M195,117.2l15.6-98.4h48.3c29.6,0,34,21.2,31,35.4c-5,23.8-16.4,33.1-41,33.1h-14.5l-4.6,29.9H195z M241.1,44.2l-3,18.9
				h3.3c6.6,0,10.1-0.4,12.5-2.7c1.5-1.4,2.7-3.5,3.1-6.5c0.5-3.3,0.2-5.4-0.9-6.7c-1.1-1.4-2.5-2.9-11.7-2.9H241.1z"/>
		</g>
		<path d="M341.5,104.6h-27.4l-4.8,12.6h-38.7l50.5-98.4h39.2l19.9,98.4H342L341.5,104.6z M338.7,81.1l-3.3-30.4L324,81.2
			L338.7,81.1z"/>
		<g>
			<path d="M492,100.8l3,35.1l-39.2-27.3c-10.4,8.4-39.9,15.1-59.2,1.3c-23-16.5-18.9-52.1-7.8-67.8c18.2-25.7,52.8-35,76.9-20
				c22.8,14.2,24.8,48.1,5.3,72.8L492,100.8z M448.6,70.9c4.5-13.6-1.7-24-8.9-24.4c-7.6-0.4-20.1,3.1-24,18.6
				c-2,8.1,1.6,20.6,12,20.9C436.2,86.3,444.4,83.6,448.6,70.9"/>
		</g>
		<polygon points="423.5,69.4 485.8,80.6 489.2,119.8 		"/>
		<polygon class="st20" points="423.5,69.4 485.8,80.6 489.2,119.8 		"/>
	</g>
</g>
<g id="others_sizes" class="st0">
	<g class="st1">
		<g id="text_2_">
			<g>
				<path class="st3" d="M485.8-177.5h0.8l6,16h-1.4l-1.6-4.4h-6.7l-1.6,4.4h-1.4L485.8-177.5z M489.1-167l-1.9-5.2l-1-2.9h0
					c-0.2,0.6-0.5,1.4-1,2.9l-1.9,5.2H489.1z"/>
				<path class="st3" d="M558.1-162.3c-1.4,0.7-2.8,1-4.2,1c-4.6,0-7.4-3.3-7.4-8c0-4.6,3.1-8.3,7.7-8.3c1.7,0,3.1,0.4,3.8,0.9v1.3
					c-1-0.6-2.2-1-3.8-1c-3.8,0-6.3,3-6.3,7c0,4.1,2.3,7,6.1,7c1.4,0,2.7-0.4,3.7-0.9L558.1-162.3z"/>
				<path class="st3" d="M560.1-167.2c0-3.3,2-6,5.1-6c3.1,0,5.1,2.7,5.1,6c0,3.3-2,6-5.1,6C562.1-161.3,560.1-163.9,560.1-167.2z
					 M568.9-167.2c0-2.9-1.5-4.8-3.7-4.8c-2.2,0-3.7,2-3.7,4.8c0,2.8,1.5,4.8,3.7,4.8C567.4-162.4,568.9-164.4,568.9-167.2z"/>
				<path class="st3" d="M573.3-172.9h1.1l0.2,1.5c1.3-1.1,2.6-1.8,4-1.8c1.3,0,2.4,0.7,2.9,2.1c1.4-1.2,2.8-2.1,4.3-2.1
					c1.8,0,3.2,1.2,3.2,4v7.8h-1.3v-7.3c0-1.8-0.4-3.2-2.1-3.2c-1.4,0-2.7,0.9-3.8,2c0,0.3,0,0.6,0,0.8v7.8h-1.3v-7.3
					c0-1.8-0.4-3.2-2.1-3.2c-1.4,0-2.6,0.9-3.8,2v8.6h-1.3V-172.9z"/>
				<path class="st3" d="M592.6-172.5c1.2-0.5,2.4-0.7,3.5-0.7c3.4,0,5.6,2.1,5.6,5.9c0,3.8-2.5,6-5.7,6c-0.8,0-1.6-0.2-2.1-0.5v5.9
					h-1.3V-172.5z M596-162.4c2.8,0,4.3-2,4.3-4.9c0-3.3-1.9-4.7-4.3-4.7c-0.8,0-1.5,0.1-2.2,0.4v8.7
					C594.6-162.6,595.2-162.4,596-162.4z"/>
				<path class="st3" d="M611-162.9c-0.9,0.9-2.1,1.6-3.5,1.6c-2,0-3.6-1.3-3.6-3.5c0-1.5,0.8-2.6,1.9-3.1c0.8-0.4,1.6-0.5,2.8-0.5
					l2.3-0.1v-0.9c0-1.9-1.1-2.8-2.6-2.8c-1.5,0-2.4,0.5-3.2,1l-0.6-1c1.3-0.9,2.7-1.2,3.8-1.2c2.1,0,3.8,1,3.8,3.8v3.6
					c0,2.7,0.1,3.8,0.2,4.3h-1.2L611-162.9z M608.8-167.2c-1.1,0-1.8,0.2-2.3,0.5c-0.7,0.4-1.1,1.1-1.1,2c0,1.4,0.9,2.4,2.3,2.4
					c1.6,0,2.8-1.1,3.4-1.8v-3.1L608.8-167.2z"/>
				<path class="st3" d="M615.8-172.9h1.1l0.2,1.5c1.3-1.1,2.6-1.8,4-1.8c1.8,0,3.3,1.2,3.3,4v7.8h-1.3v-7.3c0-1.8-0.5-3.2-2.2-3.2
					c-1.4,0-2.6,0.9-3.8,2v8.6h-1.3V-172.9z"/>
				<path class="st3" d="M626-157.2c0.4,0.2,0.9,0.3,1.5,0.3c1.6,0,2.9-1.2,3.8-4.4l-5-11.6h1.4l4.1,9.8h0l3.2-9.8h1.4l-4.2,12.5
					c-1.3,4-3,4.6-4.8,4.6c-0.8,0-1.3-0.1-1.8-0.3L626-157.2z"/>
			</g>
			<g>
				<path class="st16" d="M532-163c-0.1,0.3-0.2,0.5-0.3,0.5c-0.2,0-0.5-0.5-0.4-1.1c0.1-0.5,0.3-1.1,0.8-1.7
					C532.1-164.5,532.1-163.7,532-163z M532.2-166.2c-0.3-1.4-1-2.9-1.9-4.2c-1.2-1.8-3.8-4.9-8.2-5.7l-0.1,0.4
					c4.3,0.7,6.8,3.8,7.9,5.5c0.9,1.4,1.6,3,1.9,4.4c-0.6,0.7-1,1.4-1.1,2.1c-0.1,0.8,0.3,1.5,0.7,1.6c0,0,0.1,0,0.1,0
					c0.2,0,0.5-0.1,0.7-0.7c0.2-0.8,0.2-1.8,0-2.9c0.8-0.9,2.1-1.9,3.6-2.5l-0.1-0.4C534.3-168,533.1-167.1,532.2-166.2z
					 M539.3-170.6c-0.3-0.3-0.6-0.4-1-0.4c-0.4,0-0.7,0.1-1,0.4c-0.3,0.3-0.4,0.6-0.4,1c0,0.4,0.1,0.7,0.4,1c0.3,0.3,0.6,0.4,1,0.4
					c0.4,0,0.7-0.1,1-0.4c0.3-0.3,0.4-0.6,0.4-1C539.7-169.9,539.6-170.3,539.3-170.6z"/>
				<g>
					<path class="st17" d="M507.4-173.8c0.9,0,1.5,0.3,2,0.8c0.4,0.5,0.7,1.4,0.7,2.7c0,0.5,0,1-0.1,1.5c-0.1,0.4-0.2,0.8-0.4,1.1
						c-0.2,0.3-0.5,0.5-0.8,0.7c-0.3,0.1-0.8,0.2-1.3,0.2c-0.9,0-1.5-0.3-1.9-0.8c-0.4-0.6-0.6-1.4-0.6-2.6c0-0.4,0-0.8,0.1-1.3
						c0.1-0.4,0.2-0.8,0.3-1.1c0.2-0.3,0.4-0.6,0.7-0.8C506.4-173.7,506.8-173.8,507.4-173.8z M511-159.9c0,3.1-3,3.2-3.6,3.2
						c-1,0-3.9,0-3.9-3.2c0-3.3,3.4-3.2,5.4-3.1C509.8-162.4,511-161.4,511-159.9z M522.4-180.1c0.1,0.3,0.2,0.6,0.2,0.9
						c0,0.4-0.1,0.7-0.3,1c-0.2,0.3-0.8,0.6-1.3,0.6c-0.3,0-0.5-0.1-0.8-0.2c-0.3-0.2-0.5-0.5-0.5-0.9c0-0.3,0.1-0.6,0.3-0.9
						c0.2-0.2,0.2-0.5,0.2-0.7c0-0.3-0.1-0.5-0.4-0.7c-0.1,0-0.2-0.1-0.4-0.1c-0.6,0-1.4,0.3-1.9,0.9c-0.5,0.6-0.8,1.6-0.8,3v3.3
						h5.3v12h-2.6v-11.1h-2.8v11.1h-2.6v-11.1h-2.8c1.1,1.1,1.2,2.5,1.2,2.9c0,1.6-1.3,3.5-3.6,3.9c0,1.3,2.3,2.5,3.3,3.4
						c2.4,2.2,1.1,5.4-1.4,6.3c-5,1.9-9.6-0.6-9.6-3.1c0-2.7,3.3-4.1,6.2-4.1c0.4,0,0.8,0,1.2,0c-0.3-0.3-0.8-1.2-0.8-2.3
						c-0.1,0-0.1,0-0.2,0c-3.4,0-5.1-2.2-5.1-4c0-1.9,1.6-4.4,5-4.4c1.1,0,1.9,0.3,2.6,0.5h4.2v-0.9c0-0.6,0-1.2,0.1-1.7
						c0.1-0.5,0.2-0.9,0.3-1.3c0.1-0.4,0.2-0.7,0.4-1c0.1-0.3,0.3-0.5,0.5-0.7c0.5-0.7,1.1-1.2,1.8-1.6c0.7-0.4,1.5-0.6,2.3-0.6
						c0.4,0,0.8,0.1,1.1,0.2c0.4,0.1,0.8,0.4,1.1,0.7C522-180.8,522.2-180.5,522.4-180.1z"/>
				</g>
			</g>
		</g>
		<path id="line_5_" class="st19" d="M476.3-166.4c0-0.2-0.1-0.3-0.4-0.3h-20.8c-0.3,0-0.4,0.2-0.4,0.3l0,0c0,0.2,0.1,0.3,0.4,0.3
			h20.8C476.2-166.1,476.3-166.2,476.3-166.4L476.3-166.4z"/>
		<g id="IMPAQ_1_">
			<polygon points="473.6,-224 467.8,-187.3 455,-187.3 460.8,-224 			"/>
			<polygon points="471.4,-187.3 483,-224 496.9,-224 499.3,-204.8 507.5,-224 521.4,-224 521.4,-187.3 508.6,-187.3 509.8,-207.2 
				500.4,-187.3 492.4,-187.3 489.8,-207.2 484.8,-187.3 			"/>
			<g>
				<path d="M524.6-187.3l5.8-36.8h18c11.1,0,12.7,7.9,11.6,13.2c-1.9,8.9-6.1,12.4-15.3,12.4h-5.4l-1.7,11.2H524.6z M541.8-214.6
					l-1.1,7.1h1.2c2.5,0,3.8-0.1,4.7-1c0.5-0.5,1-1.3,1.2-2.4c0.2-1.2,0.1-2-0.3-2.5c-0.4-0.5-0.9-1.1-4.4-1.1H541.8z"/>
			</g>
			<path d="M579.3-192h-10.2l-1.8,4.7h-14.5l18.9-36.8h14.6l7.4,36.8h-14.3L579.3-192z M578.3-200.8l-1.2-11.3l-4.3,11.4
				L578.3-200.8z"/>
			<g>
				<path d="M635.6-193.4l1.1,13.1L622-190.5c-3.9,3.1-14.9,5.6-22.1,0.5c-8.6-6.2-7.1-19.5-2.9-25.3c6.8-9.6,19.7-13.1,28.7-7.5
					c8.5,5.3,9.3,18,2,27.2L635.6-193.4z M619.3-204.6c1.7-5.1-0.7-9-3.3-9.1c-2.8-0.2-7.5,1.1-9,6.9c-0.8,3,0.6,7.7,4.5,7.8
					C614.7-198.8,617.8-199.8,619.3-204.6"/>
			</g>
			<polygon points="610,-205.2 633.2,-201 634.5,-186.3 			"/>
			<polygon class="st20" points="610,-205.2 633.2,-201 634.5,-186.3 			"/>
		</g>
	</g>
	<g id="text_3_" class="st1">
		<g>
			<path class="st3" d="M485.8-96.4h0.8l6,16h-1.4l-1.6-4.4h-6.7l-1.6,4.4h-1.4L485.8-96.4z M489.1-86l-1.9-5.2l-1-2.9h0
				c-0.2,0.6-0.5,1.4-1,2.9l-1.9,5.2H489.1z"/>
			<path class="st3" d="M558.1-81.3c-1.4,0.7-2.8,1-4.2,1c-4.6,0-7.4-3.3-7.4-8c0-4.6,3.1-8.3,7.7-8.3c1.7,0,3.1,0.4,3.8,0.9v1.3
				c-1-0.6-2.2-1-3.8-1c-3.8,0-6.3,3-6.3,7c0,4.1,2.3,7,6.1,7c1.4,0,2.7-0.4,3.7-0.9L558.1-81.3z"/>
			<path class="st3" d="M560.1-86.2c0-3.3,2-6,5.1-6c3.1,0,5.1,2.7,5.1,6c0,3.3-2,6-5.1,6C562.1-80.2,560.1-82.9,560.1-86.2z
				 M568.9-86.2c0-2.9-1.5-4.8-3.7-4.8c-2.2,0-3.7,2-3.7,4.8c0,2.8,1.5,4.8,3.7,4.8C567.4-81.4,568.9-83.4,568.9-86.2z"/>
			<path class="st3" d="M573.3-91.9h1.1l0.2,1.5c1.3-1.1,2.6-1.8,4-1.8c1.3,0,2.4,0.7,2.9,2.1c1.4-1.2,2.8-2.1,4.3-2.1
				c1.8,0,3.2,1.2,3.2,4v7.8h-1.3v-7.3c0-1.8-0.4-3.2-2.1-3.2c-1.4,0-2.7,0.9-3.8,2c0,0.3,0,0.6,0,0.8v7.8h-1.3v-7.3
				c0-1.8-0.4-3.2-2.1-3.2c-1.4,0-2.6,0.9-3.8,2v8.6h-1.3V-91.9z"/>
			<path class="st3" d="M592.6-91.5c1.2-0.5,2.4-0.7,3.5-0.7c3.4,0,5.6,2.1,5.6,5.9c0,3.8-2.5,6-5.7,6c-0.8,0-1.6-0.2-2.1-0.5v5.9
				h-1.3V-91.5z M596-81.4c2.8,0,4.3-2,4.3-4.9c0-3.3-1.9-4.7-4.3-4.7c-0.8,0-1.5,0.1-2.2,0.4v8.7C594.6-81.5,595.2-81.4,596-81.4z"
				/>
			<path class="st3" d="M611-81.8c-0.9,0.9-2.1,1.6-3.5,1.6c-2,0-3.6-1.3-3.6-3.5c0-1.5,0.8-2.6,1.9-3.1c0.8-0.4,1.6-0.5,2.8-0.5
				l2.3-0.1v-0.9c0-1.9-1.1-2.8-2.6-2.8c-1.5,0-2.4,0.5-3.2,1l-0.6-1c1.3-0.9,2.7-1.2,3.8-1.2c2.1,0,3.8,1,3.8,3.8v3.6
				c0,2.7,0.1,3.8,0.2,4.3h-1.2L611-81.8z M608.8-86.2c-1.1,0-1.8,0.2-2.3,0.5c-0.7,0.4-1.1,1.1-1.1,2c0,1.4,0.9,2.4,2.3,2.4
				c1.6,0,2.8-1.1,3.4-1.8v-3.1L608.8-86.2z"/>
			<path class="st3" d="M615.8-91.9h1.1l0.2,1.5c1.3-1.1,2.6-1.8,4-1.8c1.8,0,3.3,1.2,3.3,4v7.8h-1.3v-7.3c0-1.8-0.5-3.2-2.2-3.2
				c-1.4,0-2.6,0.9-3.8,2v8.6h-1.3V-91.9z"/>
			<path class="st3" d="M626-76.2c0.4,0.2,0.9,0.3,1.5,0.3c1.6,0,2.9-1.2,3.8-4.4l-5-11.6h1.4l4.1,9.8h0l3.2-9.8h1.4l-4.2,12.5
				c-1.3,4-3,4.6-4.8,4.6c-0.8,0-1.3-0.1-1.8-0.3L626-76.2z"/>
		</g>
		<g>
			<path class="st16" d="M532-82c-0.1,0.3-0.2,0.5-0.3,0.5c-0.2,0-0.5-0.5-0.4-1.1c0.1-0.5,0.3-1.1,0.8-1.7
				C532.1-83.5,532.1-82.6,532-82z M532.2-85.2c-0.3-1.4-1-2.9-1.9-4.2c-1.2-1.8-3.8-4.9-8.2-5.7l-0.1,0.4c4.3,0.7,6.8,3.8,7.9,5.5
				c0.9,1.4,1.6,3,1.9,4.4c-0.6,0.7-1,1.4-1.1,2.1c-0.1,0.8,0.3,1.5,0.7,1.6c0,0,0.1,0,0.1,0c0.2,0,0.5-0.1,0.7-0.7
				c0.2-0.8,0.2-1.8,0-2.9c0.8-0.9,2.1-1.9,3.6-2.5l-0.1-0.4C534.3-87,533.1-86.1,532.2-85.2z M539.3-89.5c-0.3-0.3-0.6-0.4-1-0.4
				c-0.4,0-0.7,0.1-1,0.4c-0.3,0.3-0.4,0.6-0.4,1c0,0.4,0.1,0.7,0.4,1c0.3,0.3,0.6,0.4,1,0.4c0.4,0,0.7-0.1,1-0.4
				c0.3-0.3,0.4-0.6,0.4-1C539.7-88.9,539.6-89.2,539.3-89.5z"/>
			<g>
				<path class="st17" d="M507.4-92.8c0.9,0,1.5,0.3,2,0.8c0.4,0.5,0.7,1.4,0.7,2.7c0,0.5,0,1-0.1,1.5c-0.1,0.4-0.2,0.8-0.4,1.1
					c-0.2,0.3-0.5,0.5-0.8,0.7c-0.3,0.1-0.8,0.2-1.3,0.2c-0.9,0-1.5-0.3-1.9-0.8c-0.4-0.6-0.6-1.4-0.6-2.6c0-0.4,0-0.8,0.1-1.3
					c0.1-0.4,0.2-0.8,0.3-1.1c0.2-0.3,0.4-0.6,0.7-0.8C506.4-92.7,506.8-92.8,507.4-92.8z M511-78.9c0,3.1-3,3.2-3.6,3.2
					c-1,0-3.9,0-3.9-3.2c0-3.3,3.4-3.2,5.4-3.1C509.8-81.4,511-80.3,511-78.9z M522.4-99.1c0.1,0.3,0.2,0.6,0.2,0.9
					c0,0.4-0.1,0.7-0.3,1c-0.2,0.3-0.8,0.6-1.3,0.6c-0.3,0-0.5-0.1-0.8-0.2c-0.3-0.2-0.5-0.5-0.5-0.9c0-0.3,0.1-0.6,0.3-0.9
					c0.2-0.2,0.2-0.5,0.2-0.7c0-0.3-0.1-0.5-0.4-0.7c-0.1,0-0.2-0.1-0.4-0.1c-0.6,0-1.4,0.3-1.9,0.9c-0.5,0.6-0.8,1.6-0.8,3v3.3h5.3
					v12h-2.6v-11.1h-2.8V-81h-2.6v-11.1h-2.8c1.1,1.1,1.2,2.5,1.2,2.9c0,1.6-1.3,3.5-3.6,3.9c0,1.3,2.3,2.5,3.3,3.4
					c2.4,2.2,1.1,5.4-1.4,6.3c-5,1.9-9.6-0.6-9.6-3.1c0-2.7,3.3-4.1,6.2-4.1c0.4,0,0.8,0,1.2,0c-0.3-0.3-0.8-1.2-0.8-2.3
					c-0.1,0-0.1,0-0.2,0c-3.4,0-5.1-2.2-5.1-4c0-1.9,1.6-4.4,5-4.4c1.1,0,1.9,0.3,2.6,0.5h4.2V-94c0-0.6,0-1.2,0.1-1.7
					c0.1-0.5,0.2-0.9,0.3-1.3c0.1-0.4,0.2-0.7,0.4-1c0.1-0.3,0.3-0.5,0.5-0.7c0.5-0.7,1.1-1.2,1.8-1.6c0.7-0.4,1.5-0.6,2.3-0.6
					c0.4,0,0.8,0.1,1.1,0.2c0.4,0.1,0.8,0.4,1.1,0.7C522-99.7,522.2-99.4,522.4-99.1z"/>
			</g>
		</g>
	</g>
	<g id="IMPAQ_2_" class="st1">
		<polygon points="495.7,-137.1 490.6,-105.3 479.5,-105.3 484.6,-137.1 		"/>
		<polygon points="493.7,-105.3 503.7,-137.1 515.8,-137.1 517.8,-120.5 525,-137.1 537,-137.1 537,-105.3 525.9,-105.3 
			526.9,-122.5 518.8,-105.3 511.9,-105.3 509.6,-122.6 505.3,-105.3 		"/>
		<g>
			<path d="M539.7-105.3l5-31.8h15.6c9.6,0,11,6.9,10,11.4c-1.6,7.7-5.3,10.7-13.3,10.7h-4.7l-1.5,9.7H539.7z M554.6-128.9l-1,6.1
				h1.1c2.1,0,3.3-0.1,4.1-0.9c0.5-0.5,0.9-1.1,1-2.1c0.1-1.1,0.1-1.7-0.3-2.2c-0.3-0.4-0.8-0.9-3.8-0.9H554.6z"/>
		</g>
		<path d="M587.1-109.4h-8.8l-1.6,4.1h-12.5l16.3-31.8h12.7l6.4,31.8h-12.3L587.1-109.4z M586.2-117l-1.1-9.8l-3.7,9.8L586.2-117z"
			/>
		<g>
			<path d="M635.7-110.6l1,11.4L624-108c-3.4,2.7-12.9,4.9-19.1,0.4c-7.4-5.3-6.1-16.8-2.5-21.9c5.9-8.3,17.1-11.3,24.9-6.5
				c7.4,4.6,8,15.5,1.7,23.5L635.7-110.6z M621.7-120.3c1.4-4.4-0.6-7.8-2.9-7.9c-2.4-0.1-6.5,1-7.8,6c-0.7,2.6,0.5,6.6,3.9,6.8
				C617.7-115.3,620.3-116.2,621.7-120.3"/>
		</g>
		<polygon points="613.6,-120.8 633.7,-117.1 634.8,-104.4 		"/>
		<polygon class="st20" points="613.6,-120.8 633.7,-117.1 634.8,-104.4 		"/>
	</g>
</g>
<g id="IMPAQ_x5F_WHITE" class="st0">
	<rect id="background" x="-178" y="-242" class="st1" width="841.9" height="595.3"/>
	<g id="UK_text_-_copie_7" class="st1">
		<g>
			<path class="st21" d="M229.6,140.9h1.4l10.5,28.1H239l-2.8-7.7h-11.8l-2.8,7.7h-2.5L229.6,140.9z M235.4,159.3l-3.3-9.2l-1.8-5.1
				h-0.1c-0.3,1.1-0.8,2.4-1.8,5.1l-3.3,9.2H235.4z"/>
			<path class="st21" d="M356.7,167.6c-2.4,1.3-4.9,1.8-7.3,1.8c-8,0-13-5.9-13-14.1c0-8.2,5.5-14.6,13.5-14.6
				c2.9,0,5.5,0.8,6.7,1.5v2.2c-1.8-1-3.8-1.7-6.7-1.7c-6.7,0-11.1,5.2-11.1,12.3c0,7.2,4.1,12.3,10.8,12.3c2.5,0,4.7-0.7,6.5-1.7
				L356.7,167.6z"/>
			<path class="st21" d="M360.3,158.9c0-5.9,3.4-10.5,9-10.5c5.4,0,8.9,4.7,8.9,10.5c0,5.8-3.4,10.5-9,10.5
				C363.8,169.4,360.3,164.7,360.3,158.9z M375.8,158.9c0-5-2.6-8.5-6.5-8.5c-3.9,0-6.6,3.5-6.6,8.5c0,5,2.6,8.5,6.5,8.5
				C373.2,167.4,375.8,163.9,375.8,158.9z"/>
			<path class="st21" d="M383.5,148.9h1.9l0.3,2.7c2.2-1.9,4.5-3.2,7.1-3.2c2.3,0,4.2,1.1,5.1,3.6c2.4-2.2,4.9-3.6,7.6-3.6
				c3.1,0,5.6,2.2,5.6,7V169h-2.3v-12.8c0-3.2-0.8-5.7-3.7-5.7c-2.4,0-4.7,1.6-6.8,3.4c0,0.5,0.1,1,0.1,1.4V169h-2.3v-12.8
				c0-3.2-0.8-5.7-3.7-5.7c-2.5,0-4.6,1.6-6.7,3.4V169h-2.3V148.9z"/>
			<path class="st21" d="M417.4,149.6c2.1-0.8,4.2-1.2,6.2-1.2c6,0,9.9,3.7,9.9,10.4c0,6.7-4.4,10.6-10,10.6c-1.4,0-2.8-0.3-3.8-0.8
				V179h-2.3V149.6z M423.5,167.4c4.9,0,7.6-3.4,7.6-8.7c0-5.8-3.4-8.3-7.5-8.3c-1.4,0-2.6,0.2-3.9,0.6v15.4
				C421,167.1,422,167.4,423.5,167.4z"/>
			<path class="st21" d="M449.8,166.5c-1.6,1.6-3.7,2.8-6.2,2.8c-3.6,0-6.2-2.3-6.2-6.1c0-2.7,1.4-4.5,3.4-5.4
				c1.4-0.6,2.9-0.8,4.9-0.9l4-0.1v-1.5c0-3.4-2-4.9-4.5-4.9c-2.6,0-4.2,0.9-5.6,1.7l-1-1.7c2.3-1.5,4.8-2,6.7-2
				c3.7,0,6.7,1.8,6.7,6.6v6.4c0,4.7,0.2,6.6,0.4,7.6h-2.1L449.8,166.5z M445.9,158.9c-1.9,0-3.1,0.3-4.1,0.8c-1.3,0.7-2,2-2,3.4
				c0,2.4,1.5,4.2,4,4.2c2.8,0,4.8-2,5.9-3.1v-5.4L445.9,158.9z"/>
			<path class="st21" d="M458.3,148.9h1.9l0.3,2.7c2.2-1.9,4.5-3.2,7.1-3.2c3.1,0,5.8,2.2,5.8,7V169h-2.3v-12.8
				c0-3.2-0.9-5.7-3.9-5.7c-2.5,0-4.6,1.6-6.7,3.4V169h-2.3V148.9z"/>
			<path class="st21" d="M476.3,176.5c0.7,0.3,1.6,0.5,2.7,0.5c2.8,0,5.1-2.1,6.7-7.8l-8.8-20.3h2.5l7.2,17.2h0.1l5.6-17.2h2.4
				l-7.4,22c-2.3,7-5.3,8.1-8.4,8.1c-1.4,0-2.3-0.2-3.1-0.6L476.3,176.5z"/>
		</g>
		<g id="Gfi_logo">
			<path class="st22" d="M310.8,166.3c-0.1,0.5-0.4,0.8-0.6,0.8c-0.4-0.1-0.8-0.9-0.7-2c0.1-0.9,0.6-1.9,1.4-2.9
				C311.1,163.7,311.1,165.1,310.8,166.3z M311.3,160.7c-0.6-2.4-1.7-5-3.3-7.5c-2.1-3.2-6.6-8.7-14.4-10l-0.1,0.7
				c7.5,1.3,11.9,6.6,13.9,9.7c1.6,2.5,2.7,5.2,3.3,7.7c-1,1.2-1.7,2.5-1.9,3.7c-0.2,1.5,0.5,2.6,1.2,2.8c0,0,0.1,0,0.2,0
				c0.3,0,0.9-0.2,1.2-1.3c0.4-1.4,0.3-3.2,0-5c1.5-1.7,3.7-3.3,6.3-4.4l-0.3-0.6C315,157.5,312.9,159,311.3,160.7z M323.7,153
				c-0.5-0.5-1.1-0.7-1.8-0.7c-0.7,0-1.3,0.2-1.8,0.7c-0.5,0.5-0.8,1.1-0.8,1.8c0,0.7,0.2,1.3,0.8,1.8c0.5,0.5,1.1,0.7,1.8,0.7
				c0.7,0,1.3-0.2,1.8-0.7c0.5-0.5,0.8-1.1,0.8-1.8C324.4,154.1,324.2,153.5,323.7,153z"/>
			<g>
				<path class="st22" d="M267.7,147.3c1.5,0,2.7,0.5,3.5,1.4c0.8,0.9,1.2,2.5,1.2,4.8c0,0.9-0.1,1.8-0.2,2.6
					c-0.1,0.7-0.4,1.4-0.7,1.9c-0.3,0.5-0.8,0.9-1.4,1.2c-0.6,0.3-1.4,0.4-2.3,0.4c-1.6,0-2.7-0.5-3.3-1.4c-0.7-1-1-2.5-1-4.6
					c0-0.7,0-1.5,0.1-2.2c0.1-0.7,0.3-1.4,0.6-2c0.3-0.6,0.7-1,1.3-1.4C265.8,147.5,266.6,147.3,267.7,147.3z M273.9,171.8
					c0,5.4-5.2,5.6-6.3,5.6c-1.8,0-6.8,0-6.8-5.6c0-5.8,6.1-5.7,9.5-5.4C271.9,167.4,273.9,169.2,273.9,171.8z M293.9,136.2
					c0.2,0.5,0.4,1.1,0.4,1.5c0,0.7-0.2,1.3-0.6,1.8c-0.4,0.6-1.3,1-2.2,1c-0.5,0-0.9-0.1-1.3-0.3c-0.6-0.3-0.9-0.8-0.9-1.5
					c0-0.6,0.2-1.1,0.5-1.6c0.3-0.4,0.4-0.8,0.4-1.3c0-0.6-0.2-1-0.7-1.2c-0.2-0.1-0.4-0.1-0.7-0.1c-1,0-2.5,0.5-3.3,1.5
					c-0.9,1.1-1.4,2.9-1.4,5.2v5.8h9.4V168h-4.5v-19.6H284V168h-4.5v-19.6h-5c1.9,1.9,2.1,4.4,2.1,5.1c0,2.8-2.3,6.1-6.3,6.9
					c0,2.4,4,4.4,5.8,6c4.2,3.8,2,9.4-2.5,11.1c-8.8,3.4-16.9-1.1-16.9-5.5c0-4.8,5.8-7.3,10.8-7.3c0.8,0,1.5,0,2.1,0.1
					c-0.5-0.6-1.4-2.2-1.4-4.1c-0.1,0-0.2,0-0.3,0c-6,0-9-4-9-7.1c0-3.4,2.9-7.8,8.7-7.8c1.8,0,3.4,0.5,4.5,0.9h7.3v-1.7
					c0-1.1,0.1-2.1,0.2-2.9c0.1-0.8,0.3-1.6,0.5-2.2c0.2-0.6,0.4-1.2,0.7-1.7c0.3-0.5,0.6-0.9,0.9-1.3c1-1.2,2-2.1,3.2-2.8
					c1.2-0.7,2.6-1.1,4-1.1c0.7,0,1.4,0.1,1.9,0.3c0.7,0.3,1.4,0.7,1.9,1.2C293.3,135.1,293.7,135.6,293.9,136.2z"/>
			</g>
		</g>
		<path id="line_1_" class="st21" d="M213,160.3c0-0.3-0.2-0.6-0.8-0.6H8.9c-0.5,0-0.7,0.3-0.7,0.6l0,0c0,0.3,0.1,0.6,0.7,0.6h203.4
			C212.8,160.9,213,160.6,213,160.3L213,160.3z"/>
		<g>
			<path class="st21" d="M484.1-120.9h0.7L490-107h-1.2l-1.4-3.8h-5.8l-1.4,3.8h-1.2L484.1-120.9z M487-111.8l-1.6-4.5l-0.9-2.5h0
				c-0.2,0.5-0.4,1.2-0.9,2.5l-1.6,4.5H487z"/>
			<path class="st21" d="M547-107.7c-1.2,0.6-2.4,0.9-3.6,0.9c-4,0-6.4-2.9-6.4-7c0-4,2.7-7.2,6.7-7.2c1.5,0,2.7,0.4,3.3,0.8v1.1
				c-0.9-0.5-1.9-0.8-3.3-0.8c-3.3,0-5.5,2.6-5.5,6.1c0,3.6,2,6.1,5.3,6.1c1.2,0,2.3-0.3,3.2-0.8L547-107.7z"/>
			<path class="st21" d="M548.8-112c0-2.9,1.7-5.2,4.4-5.2c2.7,0,4.4,2.3,4.4,5.2c0,2.9-1.7,5.2-4.4,5.2
				C550.5-106.8,548.8-109.1,548.8-112z M556.5-112c0-2.5-1.3-4.2-3.2-4.2c-2,0-3.3,1.7-3.3,4.2c0,2.5,1.3,4.2,3.2,4.2
				C555.2-107.8,556.5-109.5,556.5-112z"/>
			<path class="st21" d="M560.3-116.9h0.9l0.2,1.3c1.1-0.9,2.2-1.6,3.5-1.6c1.1,0,2.1,0.6,2.5,1.8c1.2-1.1,2.4-1.8,3.7-1.8
				c1.6,0,2.8,1.1,2.8,3.4v6.7h-1.1v-6.3c0-1.6-0.4-2.8-1.8-2.8c-1.2,0-2.3,0.8-3.3,1.7c0,0.2,0,0.5,0,0.7v6.7h-1.1v-6.3
				c0-1.6-0.4-2.8-1.8-2.8c-1.2,0-2.3,0.8-3.3,1.7v7.5h-1.1V-116.9z"/>
			<path class="st21" d="M577.1-116.6c1-0.4,2.1-0.6,3-0.6c3,0,4.9,1.8,4.9,5.1c0,3.3-2.2,5.3-4.9,5.3c-0.7,0-1.4-0.2-1.9-0.4v5.2
				h-1.1V-116.6z M580.1-107.8c2.4,0,3.8-1.7,3.8-4.3c0-2.9-1.7-4.1-3.7-4.1c-0.7,0-1.3,0.1-1.9,0.3v7.6
				C578.8-107.9,579.3-107.8,580.1-107.8z"/>
			<path class="st21" d="M593.1-108.2c-0.8,0.8-1.8,1.4-3,1.4c-1.8,0-3.1-1.1-3.1-3c0-1.3,0.7-2.2,1.7-2.7c0.7-0.3,1.4-0.4,2.4-0.4
				l2-0.1v-0.8c0-1.7-1-2.4-2.2-2.4c-1.3,0-2.1,0.4-2.8,0.9l-0.5-0.9c1.2-0.8,2.4-1,3.3-1c1.8,0,3.3,0.9,3.3,3.3v3.2
				c0,2.3,0.1,3.3,0.2,3.8h-1.1L593.1-108.2z M591.1-112c-0.9,0-1.6,0.2-2,0.4c-0.7,0.3-1,1-1,1.7c0,1.2,0.8,2.1,2,2.1
				c1.4,0,2.4-1,2.9-1.6v-2.7L591.1-112z"/>
			<path class="st21" d="M597.3-116.9h0.9l0.2,1.3c1.1-0.9,2.2-1.6,3.5-1.6c1.6,0,2.9,1.1,2.9,3.4v6.7h-1.1v-6.3
				c0-1.6-0.4-2.8-1.9-2.8c-1.2,0-2.3,0.8-3.3,1.7v7.5h-1.1V-116.9z"/>
			<path class="st21" d="M606.2-103.3c0.4,0.1,0.8,0.3,1.3,0.3c1.4,0,2.5-1,3.3-3.8l-4.3-10.1h1.2l3.6,8.5h0l2.8-8.5h1.2l-3.7,10.9
				c-1.2,3.4-2.6,4-4.2,4c-0.7,0-1.1-0.1-1.6-0.3L606.2-103.3z"/>
		</g>
		<g id="Gfi_logo_1_">
			<path class="st22" d="M524.3-108.3c-0.1,0.3-0.2,0.4-0.3,0.4c-0.2,0-0.4-0.4-0.3-1c0.1-0.5,0.3-1,0.7-1.5
				C524.5-109.6,524.5-108.9,524.3-108.3z M524.5-111.1c-0.3-1.2-0.8-2.5-1.6-3.7c-1-1.6-3.3-4.3-7.1-5l-0.1,0.3
				c3.7,0.6,5.9,3.3,6.9,4.8c0.8,1.2,1.4,2.6,1.6,3.8c-0.5,0.6-0.8,1.3-0.9,1.9c-0.1,0.7,0.2,1.3,0.6,1.4c0,0,0,0,0.1,0
				c0.2,0,0.4-0.1,0.6-0.6c0.2-0.7,0.2-1.6,0-2.5c0.7-0.8,1.8-1.6,3.1-2.2l-0.1-0.3C526.4-112.7,525.3-111.9,524.5-111.1z
				 M530.7-114.9c-0.2-0.2-0.5-0.4-0.9-0.4c-0.3,0-0.6,0.1-0.9,0.4c-0.2,0.2-0.4,0.5-0.4,0.9c0,0.3,0.1,0.6,0.4,0.9
				c0.2,0.3,0.5,0.4,0.9,0.4c0.4,0,0.7-0.1,0.9-0.4c0.3-0.2,0.4-0.5,0.4-0.9C531-114.3,530.9-114.6,530.7-114.9z"/>
			<g>
				<path class="st22" d="M502.9-117.7c0.8,0,1.3,0.2,1.7,0.7c0.4,0.5,0.6,1.2,0.6,2.4c0,0.5,0,0.9-0.1,1.3
					c-0.1,0.4-0.2,0.7-0.4,0.9c-0.2,0.3-0.4,0.4-0.7,0.6c-0.3,0.1-0.7,0.2-1.2,0.2c-0.8,0-1.3-0.2-1.6-0.7c-0.3-0.5-0.5-1.2-0.5-2.3
					c0-0.4,0-0.7,0.1-1.1c0-0.4,0.1-0.7,0.3-1c0.1-0.3,0.3-0.5,0.6-0.7C502.1-117.6,502.4-117.7,502.9-117.7z M506.1-105.6
					c0,2.7-2.6,2.8-3.1,2.8c-0.9,0-3.4,0-3.4-2.8c0-2.9,3-2.8,4.7-2.7C505-107.8,506.1-106.9,506.1-105.6z M516-123.2
					c0.1,0.3,0.2,0.5,0.2,0.8c0,0.3-0.1,0.6-0.3,0.9c-0.2,0.3-0.7,0.5-1.1,0.5c-0.2,0-0.5-0.1-0.7-0.2c-0.3-0.2-0.4-0.4-0.4-0.8
					c0-0.3,0.1-0.6,0.3-0.8c0.1-0.2,0.2-0.4,0.2-0.7c0-0.3-0.1-0.5-0.4-0.6c-0.1,0-0.2-0.1-0.4-0.1c-0.5,0-1.2,0.2-1.6,0.7
					c-0.5,0.6-0.7,1.4-0.7,2.6v2.9h4.6v10.4h-2.2v-9.7h-2.4v9.7h-2.2v-9.7h-2.5c1,1,1,2.2,1,2.5c0,1.4-1.1,3-3.1,3.4
					c0,1.2,2,2.2,2.9,3c2.1,1.9,1,4.7-1.2,5.5c-4.4,1.7-8.4-0.6-8.4-2.7c0-2.4,2.9-3.6,5.4-3.6c0.4,0,0.7,0,1,0
					c-0.2-0.3-0.7-1.1-0.7-2c0,0-0.1,0-0.2,0c-3,0-4.4-2-4.4-3.5c0-1.7,1.4-3.8,4.3-3.8c0.9,0,1.7,0.2,2.2,0.5h3.6v-0.8
					c0-0.6,0-1,0.1-1.5c0.1-0.4,0.1-0.8,0.2-1.1c0.1-0.3,0.2-0.6,0.3-0.8c0.1-0.2,0.3-0.5,0.4-0.6c0.5-0.6,1-1.1,1.6-1.4
					c0.6-0.4,1.3-0.5,2-0.5c0.4,0,0.7,0.1,0.9,0.1c0.4,0.1,0.7,0.3,1,0.6C515.6-123.8,515.8-123.5,516-123.2z"/>
			</g>
		</g>
		<path id="line_2_" class="st21" d="M475.9-111.3c0-0.2-0.1-0.3-0.4-0.3H374.9c-0.3,0-0.3,0.1-0.3,0.3l0,0c0,0.2,0.1,0.3,0.3,0.3
			h100.6C475.8-111,475.9-111.1,475.9-111.3L475.9-111.3z"/>
	</g>
	<g id="logo_IMPAQ" class="st1">
		<polygon class="st21" points="58.8,18.9 43.2,117.3 8.9,117.3 24.4,18.9 		"/>
		<polygon class="st21" points="52.7,117.2 83.8,18.9 121.1,18.9 127.3,70.2 149.5,18.9 186.7,18.9 186.7,117.2 152.3,117.2 
			155.4,64 130.4,117.2 108.9,117.2 102,63.8 88.5,117.2 		"/>
		<g>
			<path class="st21" d="M195,117.2l15.6-98.4h48.3c29.6,0,34,21.2,31,35.4c-5,23.8-16.4,33.1-41,33.1h-14.5l-4.6,29.9H195z
				 M241.1,44.2l-3,18.9h3.3c6.6,0,10.1-0.4,12.5-2.7c1.5-1.4,2.7-3.5,3.1-6.5c0.5-3.3,0.2-5.4-0.9-6.7c-1.1-1.4-2.5-2.9-11.7-2.9
				H241.1z"/>
		</g>
		<path class="st21" d="M341.5,104.6h-27.4l-4.8,12.6h-38.7l50.5-98.4h39.2l19.9,98.4H342L341.5,104.6z M338.7,81.1l-3.3-30.4
			L324,81.2L338.7,81.1z"/>
		<g>
			<path class="st21" d="M492,100.8l3,35.1l-39.2-27.3c-10.4,8.4-39.9,15.1-59.2,1.3c-23-16.5-18.9-52.1-7.8-67.8
				c18.2-25.7,52.8-35,76.9-20c22.8,14.2,24.8,48.1,5.3,72.8L492,100.8z M448.6,70.9c4.5-13.6-1.7-24-8.9-24.4
				c-7.6-0.4-20.1,3.1-24,18.6c-2,8.1,1.6,20.6,12,20.9C436.2,86.3,444.4,83.6,448.6,70.9"/>
		</g>
		<polygon class="st20" points="423.5,69.4 485.8,80.6 489.2,119.8 		"/>
	</g>
	<g id="logo_IMPAQ_2_" class="st1">
		<polygon class="st21" points="399.6,-181.3 391.9,-132.6 374.9,-132.6 382.6,-181.3 		"/>
		<polygon class="st21" points="396.6,-132.6 411.9,-181.3 430.4,-181.3 433.5,-155.9 444.5,-181.3 462.9,-181.3 462.9,-132.6 
			445.9,-132.6 447.4,-158.9 435,-132.6 424.4,-132.6 421,-159.1 414.3,-132.6 		"/>
		<g>
			<path class="st21" d="M467-132.6l7.7-48.7h23.9c14.6,0,16.8,10.5,15.3,17.5c-2.5,11.8-8.1,16.4-20.3,16.4h-7.2l-2.3,14.8H467z
				 M489.8-168.8l-1.5,9.4h1.6c3.3,0,5-0.2,6.2-1.4c0.7-0.7,1.3-1.7,1.5-3.2c0.2-1.6,0.1-2.7-0.4-3.3c-0.5-0.7-1.2-1.4-5.8-1.4
				H489.8z"/>
		</g>
		<path class="st21" d="M539.5-138.8h-13.5l-2.4,6.2h-19.1l25-48.7h19.4l9.8,48.7h-18.9L539.5-138.8z M538.1-150.5l-1.6-15l-5.6,15
			L538.1-150.5z"/>
		<g>
			<path class="st21" d="M614-140.7l1.5,17.4L596-136.8c-5.1,4.1-19.7,7.5-29.3,0.6c-11.4-8.1-9.4-25.8-3.9-33.6
				c9-12.7,26.1-17.3,38-9.9c11.3,7,12.3,23.8,2.6,36L614-140.7z M592.5-155.5c2.2-6.7-0.9-11.9-4.4-12.1c-3.7-0.2-10,1.5-11.9,9.2
				c-1,4,0.8,10.2,5.9,10.4C586.4-147.9,590.4-149.3,592.5-155.5"/>
		</g>
		<polygon class="st20" points="580.1,-156.3 610.9,-150.7 612.6,-131.3 		"/>
	</g>
</g>
<g id="repres" class="st0">
</g>
<g id="reperes_2" class="st0">
</g>
</svg>
