<?xml version="1.0" encoding="UTF-8" standalone="no"?>
<!-- Generator: Adobe Illustrator 16.0.0, SVG Export Plug-In . SVG Version: 6.00 Build 0)  -->

<svg
   xmlns:dc="http://purl.org/dc/elements/1.1/"
   xmlns:cc="http://creativecommons.org/ns#"
   xmlns:rdf="http://www.w3.org/1999/02/22-rdf-syntax-ns#"
   xmlns:svg="http://www.w3.org/2000/svg"
   xmlns="http://www.w3.org/2000/svg"
   xmlns:sodipodi="http://sodipodi.sourceforge.net/DTD/sodipodi-0.dtd"
   xmlns:inkscape="http://www.inkscape.org/namespaces/inkscape"
   version="1.1"
   id="Capa_1"
   x="0px"
   y="0px"
   width="342.382px"
   height="342.382px"
   viewBox="0 0 342.382 342.382"
   style="enable-background:new 0 0 342.382 342.382;"
   xml:space="preserve"
   inkscape:version="0.48.4 r9939"
   sodipodi:docname="tba.svg"><metadata
     id="metadata3127"><rdf:RDF><cc:Work
         rdf:about=""><dc:format>image/svg+xml</dc:format><dc:type
           rdf:resource="http://purl.org/dc/dcmitype/StillImage" /></cc:Work></rdf:RDF></metadata><defs
     id="defs3125" /><sodipodi:namedview
     pagecolor="#ffffff"
     bordercolor="#666666"
     borderopacity="1"
     objecttolerance="10"
     gridtolerance="10"
     guidetolerance="10"
     inkscape:pageopacity="0"
     inkscape:pageshadow="2"
     inkscape:window-width="1600"
     inkscape:window-height="829"
     id="namedview3123"
     showgrid="false"
     inkscape:snap-bbox="true"
     inkscape:zoom="1.9013851"
     inkscape:cx="171.19099"
     inkscape:cy="171.19099"
     inkscape:window-x="0"
     inkscape:window-y="40"
     inkscape:window-maximized="1"
     inkscape:current-layer="g3077" /><g
     id="g3077"><g
       id="g3079"
       style="fill:#ececec"><g
         id="g3081"
         style="fill:#ececec"><path
           d="M45.225,125.972C20.284,125.972,0,146.256,0,171.191c0,24.94,20.284,45.219,45.225,45.219     c24.926,0,45.219-20.278,45.219-45.219C90.444,146.256,70.151,125.972,45.225,125.972z"
           id="path3083"
           style="fill:#ececec" /></g><g
         id="g3085"
         style="fill:#ececec"><path
           d="M173.409,125.972c-24.938,0-45.225,20.284-45.225,45.219c0,24.94,20.287,45.219,45.225,45.219     c24.936,0,45.226-20.278,45.226-45.219C218.635,146.256,198.345,125.972,173.409,125.972z"
           id="path3087"
           style="fill:#ececec" /></g><g
         id="g3089"
         style="fill:#ececec"><path
           d="M297.165,125.972c-24.932,0-45.222,20.284-45.222,45.219c0,24.94,20.29,45.219,45.222,45.219     c24.926,0,45.217-20.278,45.217-45.219C342.382,146.256,322.091,125.972,297.165,125.972z"
           id="path3091"
           style="fill:#ececec" /></g></g></g><g
     id="g3093" /><g
     id="g3095" /><g
     id="g3097" /><g
     id="g3099" /><g
     id="g3101" /><g
     id="g3103" /><g
     id="g3105" /><g
     id="g3107" /><g
     id="g3109" /><g
     id="g3111" /><g
     id="g3113" /><g
     id="g3115" /><g
     id="g3117" /><g
     id="g3119" /><g
     id="g3121" /></svg>